<?xml version="1.0" encoding="UTF-8"?>
<svg version="1.1" xmlns="http://www.w3.org/2000/svg" width="2000" height="2000">
<path d="M0 0 C660 0 1320 0 2000 0 C2000 660 2000 1320 2000 2000 C1340 2000 680 2000 0 2000 C0 1340 0 680 0 0 Z " fill="#111111" transform="translate(0,0)"/>
<path d="M0 0 C6.28421816 5.80236118 10.81252218 12.06330824 14 20 C14.5171323 21.2444467 14.5171323 21.2444467 15.04471171 22.51403373 C16.31104951 27.13505852 16.27777863 31.42762376 16.25726891 36.19733524 C16.26077498 37.22689476 16.26428105 38.25645427 16.26789337 39.31721255 C16.27723243 42.78355493 16.27227751 46.24973023 16.26742554 49.71607971 C16.27116054 52.21987306 16.27576146 54.72366524 16.28115618 57.22745556 C16.29085642 62.67982691 16.29429863 68.13214744 16.29224396 73.58452606 C16.28919594 81.69270137 16.29751362 89.80083733 16.30799321 97.90900499 C16.32734609 113.23359072 16.33296194 128.55816308 16.33410732 143.88275958 C16.33502615 155.71841631 16.33914151 167.5540678 16.34550858 179.38972282 C16.34730366 182.79576633 16.34908328 186.20180984 16.35085833 189.60785335 C16.35152148 190.87796961 16.35152148 190.87796961 16.35219802 192.17374479 C16.36450871 215.9955955 16.37239893 239.8174444 16.37151146 263.63929844 C16.3714803 264.53765354 16.37144914 265.43600864 16.37141704 266.36158663 C16.37125083 270.91488012 16.37105274 275.46817361 16.37084763 280.0214671 C16.37078779 281.37792867 16.37078779 281.37792867 16.37072675 282.7617935 C16.37064587 284.59052577 16.37056228 286.41925804 16.37047596 288.24799031 C16.36925075 316.69309797 16.38425716 345.13815794 16.41162109 373.58325195 C16.44234901 405.53845146 16.45955311 437.49361962 16.45769465 469.44883484 C16.45754539 472.85707883 16.45744798 476.26532282 16.45738602 479.67356682 C16.45735105 480.9323668 16.45735105 480.9323668 16.45731538 482.21659709 C16.45725386 495.71675456 16.47002133 509.2168706 16.48725055 522.71701576 C16.50421293 536.28896055 16.50617618 549.8608448 16.4930319 563.43279434 C16.48564635 571.49301706 16.48928877 579.55305574 16.50891658 587.61325893 C16.52234237 593.63618244 16.51479478 599.65888952 16.49917014 605.68181562 C16.4960941 608.11523086 16.49975526 610.54866605 16.51089029 612.98205776 C16.58882028 631.2227744 15.78208923 645.50033145 2.7109375 659.44140625 C-7.37956941 669.16352957 -17.44557156 672.1565781 -31.08266735 672.13142776 C-32.11197181 672.1334804 -33.14127626 672.13553303 -34.20177177 672.13764787 C-37.67319725 672.14333145 -41.14458324 672.14185894 -44.61601257 672.14044189 C-47.12108001 672.14302475 -49.62614704 672.14603768 -52.13121349 672.1494453 C-58.30829263 672.15667942 -64.48535931 672.15921838 -70.6624422 672.15977435 C-78.06017569 672.16068795 -85.45790119 672.16735535 -92.85563124 672.17412117 C-110.73580817 672.19018368 -128.61598425 672.19608464 -146.4961671 672.20086992 C-154.95370251 672.20320552 -163.41123725 672.20680812 -171.86877214 672.2105653 C-200.81671515 672.22340073 -229.76465778 672.23412016 -258.71260357 672.2375679 C-260.52989288 672.23778953 -262.34718219 672.23801132 -264.1644715 672.23823325 C-265.98616168 672.23845389 -267.80785187 672.23867438 -269.62954205 672.2388947 C-273.28419666 672.23933726 -276.93885126 672.23978437 -280.59350586 672.24023438 C-281.49964819 672.24034377 -282.40579053 672.24045316 -283.33939172 672.24056586 C-312.72519019 672.244197 -342.11096399 672.26011921 -371.49675301 672.28342474 C-402.56131336 672.30801666 -433.62585961 672.32174043 -464.69042999 672.32293582 C-468.10004 672.32310728 -471.50965001 672.3233227 -474.91926003 672.32357025 C-476.17858317 672.3236539 -476.17858317 672.3236539 -477.46334718 672.32373925 C-490.97809295 672.32489022 -504.49281343 672.33591609 -518.00755065 672.35045731 C-531.58963784 672.36481839 -545.17169258 672.36806148 -558.75378527 672.36001733 C-566.82349245 672.35555932 -574.89309492 672.35942854 -582.96278836 672.37525584 C-588.98747237 672.38614693 -595.01203654 672.38137029 -601.03672502 672.37048396 C-603.47482761 672.36851942 -605.91294063 672.37164015 -608.35102852 672.38032833 C-611.66357663 672.39138637 -614.97559367 672.3839561 -618.28812695 672.3719368 C-619.2358696 672.37953199 -620.18361225 672.38712718 -621.16007438 672.39495254 C-633.66989583 672.29688587 -644.26560689 667.76452832 -653.3125 659.125 C-663.98086037 647.72681216 -666.86243359 634.706799 -666.38671875 619.42578125 C-661.49180135 523.025247 -629.78431396 425.11947239 -575 327 C-574.45408203 326.06913574 -573.90816406 325.13827148 -573.34570312 324.17919922 C-553.88982476 291.17571826 -531.40872802 259.58700044 -506.35644531 230.57861328 C-504.95320684 228.94554274 -503.56522062 227.30045391 -502.1796875 225.65234375 C-489.86312096 211.04393675 -476.5500764 197.45743432 -463.0625 183.9375 C-462.42853302 183.30085419 -461.79456604 182.66420837 -461.14138794 182.00827026 C-454.60480606 175.45075982 -448.07524595 168.98188795 -441 163 C-439.39231627 161.54554483 -437.78760285 160.08779105 -436.1875 158.625 C-431.8408469 154.70305805 -427.36946587 150.97214488 -422.81640625 147.29296875 C-420.03073908 145.02502613 -417.29818647 142.70283448 -414.5625 140.375 C-405.98792408 133.22027624 -396.98374013 126.62788843 -388 120 C-387.22817383 119.42813965 -386.45634766 118.8562793 -385.66113281 118.26708984 C-329.64339252 76.84414977 -266.66912599 45.77013938 -201 23 C-199.59490765 22.50431548 -198.18993436 22.00829312 -196.78515625 21.51171875 C-185.99415125 17.78524121 -174.97589167 14.81802984 -163.96679688 11.8125 C-161.41754611 11.11435101 -158.87238041 10.40356133 -156.328125 9.6875 C-132.59749449 3.1082621 -108.42851727 -1.41508341 -84.02612305 -4.57910156 C-81.04573632 -4.99363861 -78.08909026 -5.486441 -75.125 -6.00390625 C-20.11018451 -15.36286226 -20.11018451 -15.36286226 0 0 Z " fill="#FEFEFE" transform="translate(1704,1051)"/>
<path d="M0 0 C0.63550781 0.50015625 1.27101563 1.0003125 1.92578125 1.515625 C8.37685041 7.17997841 12.31462501 15.94387504 15 24 C15.09084083 25.42440378 15.12668281 26.85269218 15.1276505 28.27998936 C15.13066647 29.16024312 15.13368244 30.04049689 15.1367898 30.94742501 C15.13502033 31.9172264 15.13325086 32.8870278 15.13142776 33.88621712 C15.13450672 35.43475935 15.13450672 35.43475935 15.13764787 37.01458526 C15.14334717 40.50844333 15.14185702 44.00226234 15.14044189 47.49612427 C15.14302386 50.01255269 15.14603654 52.52898069 15.1494453 55.04540813 C15.15668827 61.25831846 15.15921889 67.4712164 15.15977435 73.68413046 C15.16068696 81.12309025 15.16735147 88.56204206 15.17412117 96.00099842 C15.19019458 113.98311965 15.19608605 131.96524004 15.20086992 149.94736717 C15.20320461 158.45193702 15.20680713 166.9565062 15.2105653 175.46107553 C15.22340223 204.56525198 15.23412111 233.66942804 15.2375679 262.77360725 C15.23778954 264.60122448 15.23801132 266.42884171 15.23823325 268.25645893 C15.23845389 270.08852942 15.23867438 271.92059992 15.2388947 273.75267041 C15.23933726 277.42821256 15.23978437 281.10375472 15.24023438 284.77929688 C15.24034377 285.69062027 15.24045316 286.60194367 15.24056586 287.54088292 C15.24419673 317.09254263 15.26011718 346.64417781 15.28342474 376.19582812 C15.30801373 407.42924641 15.32174032 438.66265069 15.32293582 469.89607894 C15.32310728 473.32395737 15.32332271 476.75183578 15.32357025 480.1797142 C15.32362602 481.02377284 15.32368179 481.86783147 15.32373925 482.73746764 C15.32489054 496.32876708 15.33591923 509.92004137 15.35045731 523.51133231 C15.36481474 537.16982035 15.36806357 550.82827612 15.36001733 564.48676963 C15.35555743 572.60333408 15.35943603 580.71979445 15.37525584 588.83634525 C15.38613911 594.89421711 15.3813761 600.95196967 15.37048396 607.00984596 C15.36851793 609.46279527 15.37164691 611.91575493 15.38032833 614.36868967 C15.39137023 617.69888671 15.38396779 621.02855396 15.3719368 624.35873604 C15.37953199 625.31449044 15.38712718 626.27024484 15.39495254 627.25496149 C15.30415936 638.87022655 10.66726796 649.68902177 2.84765625 658.30859375 C-6.93156418 667.26081879 -18.72954791 671.63201121 -31.84380913 671.50615788 C-32.88251461 671.51227123 -33.92122009 671.51838459 -34.99140149 671.52468321 C-38.45892814 671.54023697 -41.92575076 671.52743523 -45.39328003 671.5146637 C-47.909641 671.51999081 -50.42599878 671.52705744 -52.94235051 671.53571075 C-58.40673639 671.55045542 -63.87090931 671.55280752 -69.33530426 671.54411316 C-77.46121878 671.53121893 -85.58699445 671.54122014 -93.71290067 671.55561271 C-108.22784634 671.58052919 -122.74272674 671.5824402 -137.25768757 671.57433859 C-149.96129112 671.56726279 -162.66486936 671.56721131 -175.36847305 671.57420158 C-177.07324737 671.57511292 -178.77802168 671.57602368 -180.48279599 671.57693387 C-183.05181318 671.57831702 -185.62083036 671.57970811 -188.18984753 671.58112001 C-212.07065348 671.5940987 -235.95145096 671.5992177 -259.83225822 671.5875864 C-261.18224434 671.58692945 -261.18224434 671.58692945 -262.5595029 671.58625922 C-269.86781977 671.58265248 -277.17613651 671.57881766 -284.48445326 671.57496829 C-312.99081034 671.5601214 -341.49707162 671.56889984 -370.00341797 671.59692383 C-402.04033252 671.62835852 -434.07719035 671.64331959 -466.1141206 671.63312382 C-469.5307122 671.63208706 -472.9473038 671.63109983 -476.36389542 671.6301403 C-477.20512921 671.62989142 -478.046363 671.62964253 -478.91308872 671.6293861 C-491.60615073 671.62594752 -504.29916263 671.63524652 -516.9922142 671.65091133 C-531.42908514 671.66868739 -545.86583417 671.66880138 -560.30269991 671.64555968 C-568.37853176 671.63306847 -576.45408345 671.63428885 -584.5298988 671.65544054 C-590.56425797 671.66968921 -596.59826851 671.65772166 -602.63261642 671.63564359 C-605.07058973 671.63075832 -607.50859767 671.63428125 -609.94654201 671.64713103 C-628.21416616 671.73645547 -641.20067549 670.24996325 -654.9296875 657.16015625 C-665.6496937 645.91105104 -667.33989367 632.82869449 -667 618 C-664.42750103 568.09498784 -654.60643993 515.63664714 -638.15234375 468.4296875 C-637.16427213 465.4889184 -636.30328933 462.54272047 -635.48706055 459.55078125 C-628.29172474 433.51843348 -617.11735417 408.54843604 -606 384 C-605.59265625 383.09668945 -605.1853125 382.19337891 -604.765625 381.26269531 C-588.67010001 345.73299024 -568.46295436 311.84035738 -546 280 C-545.47196777 279.25057129 -544.94393555 278.50114258 -544.39990234 277.72900391 C-533.7281121 262.64062955 -522.54965523 247.950449 -510.5 233.93359375 C-508.17375425 231.20388975 -505.92573847 228.42691249 -503.6875 225.625 C-498.9372102 219.78308167 -493.79742915 214.33633017 -488.625 208.87109375 C-485.93772144 206.02690472 -483.32308887 203.12684998 -480.72265625 200.203125 C-475.80670106 194.72306942 -470.6534503 189.50578868 -465.4375 184.3125 C-464.54353516 183.41466797 -463.64957031 182.51683594 -462.72851562 181.59179688 C-458.21525398 177.08513839 -453.64758565 172.71598279 -448.80737305 168.56225586 C-446.02844783 166.16021041 -443.36614759 163.63750042 -440.6875 161.125 C-435.86898289 156.64257726 -430.92817067 152.3856427 -425.79296875 148.265625 C-423.29734136 146.24119999 -420.85312473 144.16747613 -418.41943359 142.06933594 C-411.24201822 135.89732576 -403.76855781 130.19829174 -396.14648438 124.58886719 C-393.97680495 122.9828306 -391.82328376 121.35697209 -389.671875 119.7265625 C-362.84205297 99.50486955 -333.96237634 82.06043326 -304.34375 66.2578125 C-302.31284009 65.16789085 -300.29434518 64.0598451 -298.28125 62.9375 C-258.55370005 41.06912388 -214.44562076 24.21283573 -170.63964844 12.70410156 C-168.22125909 12.0590188 -165.81679084 11.38052731 -163.4140625 10.6796875 C-151.19572836 7.12468614 -138.81448164 4.37679909 -126.37255859 1.72314453 C-123.27215291 1.05835507 -120.17711969 0.37261006 -117.08203125 -0.31640625 C-98.58602096 -4.32760794 -79.84831131 -6.55372966 -61.06799316 -8.75720215 C-59.23093062 -8.97288702 -57.39424531 -9.1917795 -55.55761719 -9.41113281 C-35.50000853 -11.77594552 -16.61830955 -13.76525464 0 0 Z " fill="#FEFEFE" transform="translate(931,276)"/>
<path d="M0 0 C0.97090576 0.3164447 0.97090576 0.3164447 1.96142578 0.63928223 C35.24479319 11.51280651 67.58897226 24.8070998 98.7421875 40.84228516 C101.37426197 42.19190639 104.0156905 43.52252759 106.65625 44.85546875 C140.51843563 62.06649182 172.89164095 82.82383238 203 106 C203.61214355 106.46873535 204.22428711 106.9374707 204.85498047 107.42041016 C217.7515796 117.32497026 230.5000489 127.54330671 242.41015625 138.62109375 C244.53049927 140.56873915 246.67585635 142.47006646 248.84765625 144.359375 C259.11994109 153.32045761 268.90946049 162.81742988 278.5625 172.4375 C279.29968262 173.17009033 280.03686523 173.90268066 280.79638672 174.6574707 C284.81558378 178.68810414 288.65602406 182.81519134 292.37182617 187.12670898 C294.80175731 189.92245971 297.34126199 192.61121041 299.875 195.3125 C304.35742274 200.13101711 308.6143573 205.07182933 312.734375 210.20703125 C314.75887274 212.7027483 316.83266253 215.14705763 318.9309082 217.58081055 C325.11736363 224.77520234 330.85148382 232.25626454 336.46289062 239.90527344 C337.47405018 241.28325135 338.48829256 242.65897329 339.50585938 244.03222656 C353.89475609 263.45630641 367.46242013 283.61696011 379.57568359 304.54101562 C380.53626317 306.19939024 381.50288024 307.8542805 382.47509766 309.50585938 C428.79132592 388.23896375 457.06538197 476.12366322 468.75 566.5 C468.85727417 567.32943115 468.96454834 568.1588623 469.07507324 569.01342773 C470.31208097 578.66083993 471.40833616 588.28728833 472 598 C472.04560059 598.73041504 472.09120117 599.46083008 472.13818359 600.21337891 C472.87171222 614.25061199 469.29036997 625.99003416 460.41015625 636.96484375 C452.45833975 645.51538525 441.57826376 650.92553839 429.8604852 651.37834883 C427.9992129 651.39505647 426.13774965 651.39576484 424.27644539 651.38311005 C423.23859416 651.38806956 422.20074292 651.39302908 421.13144165 651.39813888 C417.66091724 651.41107092 414.19077907 651.40271765 410.72024536 651.39440918 C408.20403613 651.39929918 405.68782914 651.40548949 403.17162597 651.41286707 C397.70452989 651.42585063 392.23755033 651.42952007 386.77044296 651.42490768 C378.64050432 651.41806661 370.51064925 651.42834458 362.38072223 651.44186524 C347.01523242 651.46676272 331.6497774 651.47129488 316.28427066 651.46939927 C304.41866419 651.46802578 292.55306978 651.4718459 280.68746567 651.47932434 C278.98226286 651.48037468 277.27706005 651.4814223 275.57185724 651.4824672 C274.30216002 651.48324622 274.30216002 651.48324622 273.00681236 651.48404097 C272.1587929 651.48456112 271.31077344 651.48508126 270.43705642 651.48561716 C269.5876097 651.48614115 268.73816298 651.48666514 267.86297545 651.48720502 C243.9746706 651.50178641 220.08637019 651.51007161 196.19806099 651.50545502 C195.29767901 651.50528306 194.39729703 651.50511111 193.46963075 651.50493394 C188.9062195 651.50404506 184.34280826 651.50310025 179.77939703 651.50213593 C178.8731016 651.5019449 177.96680617 651.50175387 177.03304724 651.50155704 C175.20029852 651.50116995 173.3675498 651.50077962 171.53480109 651.50038607 C143.01519232 651.49441562 114.49566469 651.50985708 85.97607422 651.54199219 C53.92819327 651.57807233 21.88036377 651.59740146 -10.16753876 651.59245348 C-13.58497055 651.59198351 -17.00240234 651.59157325 -20.41983414 651.59120178 C-21.26128185 651.5910994 -22.10272956 651.59099701 -22.96967569 651.59089152 C-35.66893366 651.58969697 -48.36813601 651.60166014 -61.067379 651.62034607 C-75.51051917 651.64158783 -89.95354271 651.64542799 -104.39668809 651.62604648 C-112.4771732 651.61572402 -120.55737378 651.61918067 -128.63783314 651.64257733 C-134.6739123 651.65850378 -140.70964997 651.64824706 -146.74572803 651.62785631 C-149.18573476 651.62366147 -151.62577371 651.62790007 -154.06574641 651.64145225 C-177.45837399 651.76252587 -177.45837399 651.76252587 -187 646 C-188.11117188 645.35417969 -189.22234375 644.70835937 -190.3671875 644.04296875 C-200.0310405 636.89292175 -208.15643057 627.29538247 -210 615 C-210.14869987 611.62538895 -210.14121225 608.25351927 -210.13701439 604.87606716 C-210.13966622 603.84229678 -210.14231804 602.80852639 -210.14505023 601.74342963 C-210.15274946 598.25679537 -210.15330264 594.77019628 -210.15390015 591.28355408 C-210.15791435 588.7675374 -210.1623525 586.25152137 -210.1671797 583.73550612 C-210.17789844 577.53128157 -210.18390229 571.32706692 -210.18788858 565.12283487 C-210.19289975 557.69251089 -210.20362755 550.26219787 -210.21437032 542.83188037 C-210.23999463 524.87207329 -210.25503464 506.91226196 -210.26788078 488.95244185 C-210.27213584 483.0039399 -210.27670157 477.05543826 -210.2814641 471.10693669 C-210.30672361 439.47714942 -210.32877132 407.84736163 -210.34119225 376.21756649 C-210.34411356 368.88991735 -210.34708109 361.56226824 -210.35009766 354.23461914 C-210.35046857 353.3242538 -210.35083947 352.41388845 -210.35122162 351.47593628 C-210.3633776 321.95859411 -210.39432302 292.44131156 -210.43601918 262.92399739 C-210.47880787 232.57791892 -210.50543334 202.23187195 -210.51066696 171.8857625 C-210.5114074 167.59952179 -210.51231808 163.31328113 -210.51332474 159.02704048 C-210.51351535 158.18347712 -210.51370597 157.33991375 -210.51390236 156.47078786 C-210.51741546 142.89690499 -210.53771106 129.32309682 -210.56412137 115.74924138 C-210.59026948 102.10437535 -210.59799194 88.45959561 -210.58702008 74.81470811 C-210.58104492 66.70980003 -210.58894616 58.60518472 -210.61685092 50.50032097 C-210.63615234 44.44587053 -210.62927535 38.3917458 -210.61228175 32.33727617 C-210.60947472 29.88971262 -210.61511905 27.44212165 -210.63009469 24.99460232 C-210.72986065 7.62685015 -209.5762947 -5.11861988 -196.96875 -18.08984375 C-157.88896503 -55.03675313 -44.13144156 -14.40873183 0 0 Z " fill="#FEFEFE" transform="translate(1264,300)"/>
<path d="M0 0 C1.55469368 -0.00698988 1.55469368 -0.00698988 3.14079532 -0.01412097 C6.60659008 -0.02605189 10.07199145 -0.01668259 13.53778934 -0.00736332 C16.05058612 -0.01153704 18.56338102 -0.01701477 21.07617241 -0.02368313 C26.53578901 -0.0351313 31.99528637 -0.03726909 37.45490932 -0.0311327 C45.57366556 -0.02203199 53.69234246 -0.03008138 61.81109261 -0.04142394 C76.31250307 -0.06108388 90.81387776 -0.06343958 105.31529836 -0.05822874 C118.00639054 -0.05367068 130.69746857 -0.05427185 143.3885603 -0.06006908 C145.09125135 -0.06082595 146.7939424 -0.06158193 148.49663346 -0.06233703 C151.06246301 -0.06348223 153.62829256 -0.06463211 156.19412211 -0.06579627 C180.04670556 -0.07650028 203.89928431 -0.0812275 227.7518692 -0.07332611 C229.10040571 -0.07288035 229.10040571 -0.07288035 230.47618537 -0.07242559 C237.77679706 -0.06997667 245.07740869 -0.06736508 252.37802032 -0.06474145 C280.85732953 -0.05463825 309.33657979 -0.06299623 337.81588078 -0.086236 C369.81723856 -0.11230764 401.81856086 -0.12515688 433.81992966 -0.11804825 C437.23200738 -0.11733219 440.6440851 -0.1166578 444.05616283 -0.1160078 C444.89629482 -0.115838 445.73642681 -0.11566819 446.60201734 -0.11549323 C459.28388315 -0.11319028 471.965716 -0.121167 484.64757442 -0.13429928 C499.06950563 -0.14920685 513.49135958 -0.15005853 527.91328912 -0.13222837 C535.98283621 -0.12266248 544.05220314 -0.12410608 552.12173821 -0.14146306 C558.14788965 -0.15318363 564.17381837 -0.14398106 570.19996417 -0.12664068 C572.63725992 -0.12286578 575.07457741 -0.12584531 577.51185387 -0.13625234 C580.82579923 -0.14939678 584.13879326 -0.1378604 587.45269775 -0.12025452 C588.3979885 -0.12990503 589.34327925 -0.13955554 590.31721517 -0.14949849 C600.41627646 -0.03940564 609.13984959 3.53869719 617.28926945 9.38031673 C618.80520695 10.46312923 618.80520695 10.46312923 620.35176945 11.56781673 C627.97584289 18.23628425 633.26030985 28.01188045 634.66061128 38.03951602 C634.7983974 40.78018509 634.82171594 43.49575212 634.79542732 46.23974323 C634.80154068 47.28013709 634.80765404 48.32053094 634.81395265 49.39245188 C634.82950679 52.86572154 634.81670452 56.33828836 634.80393314 59.81156063 C634.80926024 62.33204639 634.81632686 64.85252897 634.8249802 67.37300551 C634.83972502 72.84640366 634.84207688 78.31958921 634.83338261 83.79299641 C634.8204885 91.9323121 634.8304895 100.07148918 634.84488215 108.21079658 C634.86979877 122.74967045 634.87170961 137.28847916 634.86360804 151.82736815 C634.85653226 164.55191108 634.85648073 177.27642873 634.86347103 190.00097179 C634.86438237 191.7085495 634.86529313 193.41612721 634.86620332 195.12370492 C634.86758647 197.69694601 634.86897756 200.27018709 634.87038945 202.84342817 C634.88336816 226.76352996 634.88848712 250.68362329 634.87685585 274.60372639 C634.87641788 275.50519999 634.87597991 276.40667359 634.87552867 277.33546458 C634.87192193 284.6558251 634.86808711 291.97618551 634.86423774 299.29654591 C634.84939084 327.8498956 634.85816929 356.40314964 634.88619328 384.95648861 C634.91762789 417.04614085 634.93258906 449.13573646 634.92239326 481.22540438 C634.9213565 484.64761296 634.92036927 488.06982155 634.91940975 491.49203014 C634.91903642 492.75595555 634.91903642 492.75595555 634.91865555 494.04541481 C634.91521696 506.75940837 634.92451603 519.47335188 634.94018078 532.18733501 C634.95795675 546.64799445 634.95807096 561.10853219 634.93482912 575.56918643 C634.92233781 583.65834884 634.9235585 591.74723153 634.94470999 599.83637746 C634.95895845 605.88065985 634.94699134 611.92459419 634.92491304 617.96886535 C634.92002769 620.41087632 634.9235509 622.85292187 634.93640048 625.29490392 C635.01832832 642.0778491 634.34536166 655.51543007 622.28926945 668.38031673 C621.41335148 669.3181097 621.41335148 669.3181097 620.5197382 670.27484798 C610.44882532 680.00653011 598.41424935 682.69902391 584.90645695 682.53656673 C577.59076037 682.34938473 570.33822361 681.53844734 563.07296085 680.70111752 C560.15000641 680.36426765 557.22558601 680.04240566 554.3009882 679.72016048 C539.87302655 678.09536958 525.5710717 675.9923661 511.28926945 673.38031673 C510.16488468 673.17567806 509.04049992 672.97103939 507.88204288 672.76019955 C482.3390104 668.04358659 456.59779603 662.38043576 432.0822382 653.68891048 C428.92128817 652.57123987 425.72920444 651.63733584 422.49507999 650.74994564 C384.82307878 640.35106978 347.49372805 623.06993527 313.28926945 604.38031673 C312.28025578 603.83391537 311.2712421 603.287514 310.23165226 602.72455502 C287.09750775 590.17891603 264.79516214 576.55244185 243.28926945 561.38031673 C242.53984074 560.85228451 241.79041203 560.32425228 241.01827335 559.78021908 C225.92849025 549.10743245 211.23607644 537.92847177 197.21895695 525.87641048 C194.51233212 523.57036613 191.75751205 521.34583421 188.97676945 519.13031673 C183.5102681 514.6867864 178.40166598 509.8972922 173.29781437 505.04730892 C169.72470193 501.65196553 166.11202129 498.31767755 162.42989445 495.04047298 C157.14545625 490.30290976 152.10772779 485.34686174 147.10176945 480.31781673 C146.25163273 479.4715472 145.40149601 478.62527767 144.52559757 477.75336361 C140.14335032 473.3643484 135.91090152 468.90959786 131.86910343 464.20526791 C129.45957324 461.42189004 126.93243602 458.75250518 124.41426945 456.06781673 C119.9318467 451.24929963 115.67491215 446.3084874 111.55489445 441.17328548 C109.5303967 438.67756844 107.45660692 436.23325911 105.35836124 433.79950619 C99.17190582 426.60511439 93.43778563 419.12405219 87.82637882 411.4750433 C86.81521927 410.09706538 85.80097689 408.72134344 84.78341007 407.34809017 C69.8214574 387.15042184 55.83219907 366.16496958 43.28926945 344.38031673 C42.49456242 343.01084896 42.49456242 343.01084896 41.6838007 341.61371517 C14.63086328 294.83861884 -6.55462456 245.28775663 -21.80399227 193.45062923 C-22.61886576 190.6913807 -23.45856518 187.94145014 -24.3083868 185.19281673 C-35.40448752 148.70714786 -41.95464568 110.29252034 -46.14823055 72.44281673 C-46.23222103 71.70411343 -46.31621151 70.96541012 -46.40274715 70.20432186 C-47.31570734 62.03121462 -47.8570721 53.91522735 -47.9099493 45.68891048 C-47.91771893 44.94649609 -47.92548855 44.20408169 -47.93349361 43.43916988 C-47.90624877 37.07429199 -46.60379975 32.00523146 -43.71073055 26.38031673 C-43.26342587 25.50891048 -42.81612118 24.63750423 -42.3552618 23.73969173 C-35.78210025 11.96791716 -26.40199782 4.81246721 -13.49308567 1.0257216 C-8.98655064 -0.01963009 -4.60815586 -0.03276393 0 0 Z " fill="#FEFEFE" transform="translate(311.71073055267334,1052.619683265686)"/>
</svg>
