<?xml version="1.0" encoding="UTF-8"?>
<svg version="1.1" xmlns="http://www.w3.org/2000/svg" width="2000" height="693">
<path d="M0 0 C1.14065084 -0.00467997 2.28130168 -0.00935994 3.4565177 -0.01418173 C7.26332712 -0.02610934 11.06977507 -0.01668289 14.87658691 -0.00723267 C17.61205281 -0.00964962 20.34750354 -0.01653363 23.08296204 -0.02316284 C29.73231419 -0.03647615 36.38156454 -0.03363319 43.03092062 -0.02492492 C48.43681587 -0.0181393 53.84268265 -0.01723545 59.24858093 -0.02049637 C60.0190888 -0.02095607 60.78959667 -0.02141577 61.58345327 -0.0218894 C63.14891089 -0.02284861 64.7143685 -0.02382125 66.2798261 -0.02480717 C80.94605098 -0.03335403 95.61221953 -0.023538 110.27843517 -0.00740607 C122.852359 0.00599648 135.42619974 0.00366818 148.00012207 -0.01016235 C162.61522682 -0.02623063 177.23028226 -0.03253012 191.84539461 -0.02332556 C193.40497112 -0.02236995 194.96454763 -0.02142684 196.52412415 -0.02049637 C197.29138961 -0.02003354 198.05865508 -0.01957072 198.84917101 -0.01909386 C204.24619506 -0.01650772 209.64318772 -0.02086687 215.04020691 -0.02793503 C221.62078801 -0.0363641 228.2012618 -0.0340404 234.78183067 -0.0180928 C238.13695123 -0.01022883 241.49174571 -0.00871128 244.84688759 -0.01704025 C248.4890045 -0.02524754 252.13062003 -0.0149431 255.77270508 0 C256.825925 -0.00669217 257.87914493 -0.01338433 258.96428061 -0.02027929 C266.25853099 0.03769934 272.99966669 0.80603558 278.94494629 5.32626343 C279.56498535 6.0455603 280.18502441 6.76485718 280.82385254 7.50595093 C281.46193848 8.20977905 282.10002441 8.91360718 282.75744629 9.63876343 C286.93072142 16.66427695 286.67445403 24.9052155 286.64031982 32.84947205 C286.64343981 33.97449424 286.64655979 35.09951644 286.64977431 36.25863022 C286.65772462 40.01242976 286.65144217 43.76606632 286.6451416 47.51986694 C286.64785276 50.21754426 286.6513423 52.9152105 286.65576172 55.61288452 C286.66463632 62.16963989 286.66274243 68.72634937 286.65693644 75.28310651 C286.65241272 80.61320477 286.65181011 85.94329019 286.65398407 91.27338982 C286.65429054 92.03308496 286.654597 92.79278011 286.65491275 93.57549633 C286.65555223 95.11897167 286.65620066 96.66244702 286.65685794 98.20592236 C286.66255547 112.66513337 286.6560122 127.12431898 286.6452572 141.58352583 C286.63632041 153.98207802 286.63787591 166.38059277 286.64709473 178.77914429 C286.65780444 193.1895069 286.6620081 207.59984728 286.6558702 222.01021332 C286.65523312 223.54758481 286.65460438 225.0849563 286.65398407 226.6223278 C286.65367552 227.37867754 286.65336697 228.13502728 286.65304907 228.91429671 C286.65132437 234.23664293 286.65423234 239.55897501 286.65894318 244.88131905 C286.66455972 251.36931442 286.66301923 257.85726142 286.65238169 264.34525127 C286.64713565 267.65359689 286.64613175 270.96184552 286.65167999 274.2701931 C286.65714523 277.86001359 286.65028912 281.4496074 286.64031982 285.03941345 C286.64478127 286.07998242 286.64924271 287.1205514 286.65383935 288.19265276 C286.60850886 296.60873941 285.80699826 303.56642488 280.38635254 310.38095093 C274.31741686 315.84299304 268.76817631 317.61721684 260.62243652 317.25961304 C257.41021909 316.98052771 254.21337404 316.63463759 251.01135254 316.25595093 C249.82887939 316.11834351 248.64640625 315.98073608 247.42810059 315.83895874 C185.25039832 308.22923663 122.92585536 282.69005186 76.75744629 239.57626343 C74.73907931 237.70752826 72.68642798 235.90489512 70.60510254 234.10751343 C66.3953259 230.4341857 62.39633938 226.5832506 58.44885254 222.63095093 C57.749375 221.93066772 57.04989746 221.23038452 56.32922363 220.50888062 C51.73304237 215.8582751 47.46112032 211.12211764 43.42932129 205.97079468 C42.06205039 204.23752392 40.64655294 202.54128495 39.18713379 200.88485718 C-1.50017386 154.54840268 -33.09204472 80.75394858 -30.61364746 18.38095093 C-29.61313763 12.80668186 -26.76492693 8.95231575 -22.91833496 4.92391968 C-15.88994979 0.21847537 -8.21142936 -0.05217547 0 0 Z " fill="#000000" transform="translate(48.6136474609375,369.6190490722656)"/>
<path d="M0 0 C7.18827964 7.98697738 7.14897355 15.78927738 7.13371277 26.10102844 C7.13597833 27.2227818 7.13824388 28.34453515 7.14057809 29.50028104 C7.14691079 33.26102138 7.14608919 37.02172562 7.14526367 40.7824707 C7.14825561 43.47807958 7.15162992 46.17368562 7.15544128 48.86929321 C7.16374023 55.43279792 7.16649578 61.99629365 7.16705366 68.55980317 C7.16752918 73.89615962 7.16958573 79.23251312 7.17275429 84.56886864 C7.18155881 99.70565059 7.18617398 114.84242546 7.18542381 129.97921 C7.18536388 131.20271028 7.18536388 131.20271028 7.18530273 132.45092773 C7.18526185 133.26759299 7.18522097 134.08425825 7.18517885 134.92567094 C7.18477244 148.15943456 7.19434123 161.39316971 7.2084411 174.62692509 C7.22281176 188.22233972 7.2297109 201.81774047 7.22884732 215.41316289 C7.22851559 223.04310158 7.23125226 230.67301043 7.24202538 238.30294228 C7.25113945 244.79939455 7.25329818 251.29580346 7.24651595 257.79225937 C7.24325531 261.10476187 7.24426867 264.41716411 7.2518692 267.72966194 C7.25958577 271.32585568 7.25494629 274.92183159 7.24723816 278.51802063 C7.25238172 279.55772312 7.25752529 280.59742561 7.26282471 281.66863424 C7.21832204 291.07618521 6.533676 298.372528 -0.12890625 305.33984375 C-5.06071122 309.71566236 -10.40119892 311.12190926 -16.8242979 311.13142776 C-17.79857917 311.13526891 -18.77286044 311.13911005 -19.77666539 311.1430676 C-20.84444952 311.14220112 -21.91223365 311.14133463 -23.01237488 311.14044189 C-24.14875359 311.14341302 -25.28513231 311.14638414 -26.45594674 311.1494453 C-30.27817436 311.15814305 -34.10037069 311.15964146 -37.92260742 311.16113281 C-40.65733017 311.16522209 -43.39204962 311.17076416 -46.12677002 311.17617798 C-53.56698118 311.18975739 -61.00718695 311.19578553 -68.44740844 311.20018864 C-73.09422085 311.20295197 -77.74103118 311.20718951 -82.38784218 311.21169281 C-95.25638161 311.22388543 -108.12491938 311.23418446 -120.99346447 311.2375679 C-121.81702347 311.23778747 -122.64058246 311.23800703 -123.48909779 311.23823325 C-124.31461675 311.23845153 -125.1401357 311.23866981 -125.99067038 311.2388947 C-127.66345799 311.23933817 -129.3362456 311.23978473 -131.0090332 311.24023438 C-132.25367129 311.24056652 -132.25367129 311.24056652 -133.52345357 311.24090537 C-146.96428602 311.2448522 -160.40506421 311.26230272 -173.8458757 311.2855939 C-187.64914943 311.30931984 -201.45239595 311.32177033 -215.2556904 311.32293582 C-223.00416634 311.32385193 -230.75257161 311.32958805 -238.50102806 311.34775543 C-245.1000154 311.36317327 -251.69891022 311.36826701 -258.29791214 311.36001733 C-261.66313448 311.35611658 -265.02801948 311.35865144 -268.39324379 311.37107468 C-272.04655822 311.38376985 -275.69939579 311.37792994 -279.35270691 311.36749268 C-280.40933743 311.37554908 -281.46596795 311.38360548 -282.55461758 311.39190602 C-289.70035323 311.34421198 -296.2533085 310.50837821 -302.3046875 306.45703125 C-302.82289063 305.91433594 -303.34109375 305.37164062 -303.875 304.8125 C-304.40867187 304.28269531 -304.94234375 303.75289063 -305.4921875 303.20703125 C-309.40117801 297.48532234 -310.51644431 291.81752335 -310 284.9375 C-309.94658447 284.13932861 -309.89316895 283.34115723 -309.83813477 282.51879883 C-304.04146021 209.70526134 -271.48072579 141.34922891 -221 89 C-220.43635742 88.41444336 -219.87271484 87.82888672 -219.29199219 87.22558594 C-211.91191929 79.60100483 -204.35592881 72.55968833 -196 66 C-194.90528969 65.09517815 -193.81296616 64.18746327 -192.72265625 63.27734375 C-178.2049215 51.24956932 -162.44150696 40.87855568 -145.82373047 31.98828125 C-144.07643233 31.04141875 -142.35195517 30.0528039 -140.62890625 29.0625 C-106.30687789 9.73931491 -66.86815932 -0.37601399 -28 -5 C-26.81019531 -5.1546875 -25.62039063 -5.309375 -24.39453125 -5.46875 C-15.39702351 -6.47227431 -7.20870258 -6.00725215 0 0 Z " fill="#000000" transform="translate(328,12)"/>
<path d="M0 0 C1.14069946 0.08181519 1.14069946 0.08181519 2.30444336 0.1652832 C38.92312978 3.16455563 76.06713576 12.7771516 109.125 28.9375 C109.79595703 29.25928223 110.46691406 29.58106445 111.15820312 29.91259766 C125.74295567 36.91592558 139.84789161 44.66955767 153.125 53.9375 C153.67365723 54.31487305 154.22231445 54.69224609 154.78759766 55.08105469 C163.68863802 61.20914619 171.98609277 67.83385296 180.125 74.9375 C180.84042969 75.55238281 181.55585937 76.16726562 182.29296875 76.80078125 C184.25385823 78.49482804 186.1912687 80.21252378 188.125 81.9375 C188.99125 82.69933594 189.8575 83.46117188 190.75 84.24609375 C203.29296394 95.4713793 214.72632892 107.73045937 224.82324219 121.203125 C226.13251531 122.94751289 227.46004381 124.67687776 228.7890625 126.40625 C262.81052507 171.1755417 297.18206327 242.86375016 290.125 300.9375 C288.67069341 306.80926286 285.32244695 310.10091326 280.61328125 313.7109375 C273.42013308 317.25669656 265.55866528 317.22537804 257.70117188 317.19146729 C256.02082226 317.19614726 256.02082226 317.19614726 254.30652618 317.20092177 C250.56887992 317.20887175 246.83139735 317.20258974 243.09375 317.19628906 C240.40754727 317.19900025 237.72135567 317.20248983 235.03515625 317.20690918 C228.50613929 317.21578384 221.97716842 317.21388978 215.44814968 317.2080839 C210.13998983 317.20355982 204.83184286 317.20295773 199.52368164 317.20513153 C198.76705058 317.205438 198.01041951 317.20574446 197.23086023 317.20606022 C195.69358762 317.20669969 194.15631501 317.20734812 192.6190424 317.2080054 C178.2175051 317.21370305 163.8159933 317.20715968 149.41446018 317.19640467 C137.06796069 317.18746967 124.72149881 317.18902187 112.375 317.19824219 C98.02359142 317.20895481 83.67220517 317.21315378 69.32079315 317.20701766 C67.78930156 317.20638059 66.25780996 317.20575185 64.72631836 317.20513153 C63.97287344 317.20482298 63.21942853 317.20451443 62.44315195 317.20419653 C57.14381784 317.20247256 51.84449793 317.20537825 46.54516602 317.21009064 C40.08354958 317.21571049 33.62198172 317.21415983 27.16037083 317.20352915 C23.86607809 317.19828727 20.57188257 317.19727415 17.27758789 317.20282745 C13.70125422 317.20829998 10.12514738 317.20142776 6.54882812 317.19146729 C5.51506294 317.19592873 4.48129776 317.20039017 3.41620636 317.20498681 C-4.62779842 317.16159354 -12.79159245 316.78396359 -19.31788355 311.59029001 C-25.67416915 304.84345656 -26.60164546 296.91826787 -26.50318909 288.05174255 C-26.51028347 286.89390308 -26.51737786 285.73606361 -26.52468723 284.54313809 C-26.53916184 281.35612038 -26.53144753 278.17008209 -26.5139643 274.98310912 C-26.50052654 271.53586966 -26.51605011 268.08873889 -26.52778625 264.64151001 C-26.54611918 257.89931585 -26.53768008 251.15741243 -26.51969803 244.41522747 C-26.50564609 238.93401962 -26.50178479 233.45289046 -26.5051403 227.97166634 C-26.50561775 227.19019251 -26.50609519 226.40871868 -26.5065871 225.60356383 C-26.50761347 224.01579974 -26.50866884 222.42803566 -26.50975286 220.8402716 C-26.51831098 206.81573829 -26.50167324 192.79134495 -26.47192383 178.7668457 C-26.44308305 165.17043175 -26.43600664 151.57421936 -26.45141602 137.9777832 C-26.4681907 123.15646424 -26.4721999 108.33524088 -26.45470566 93.51391941 C-26.45286135 91.93245225 -26.45102662 90.35098508 -26.44920158 88.7695179 C-26.44783345 87.60247752 -26.44783345 87.60247752 -26.44643768 86.41186057 C-26.44084058 80.93917862 -26.44413168 75.46654346 -26.45074654 69.99386406 C-26.45849131 63.32177322 -26.45168598 56.64988052 -26.4265715 49.97782951 C-26.41410342 46.5761236 -26.40789687 43.17472575 -26.41911316 39.77300835 C-26.42781116 36.08044038 -26.41184373 32.38876705 -26.3896637 28.6962738 C-26.39790446 27.62817221 -26.40614523 26.56007061 -26.41463572 25.4596023 C-26.32503731 17.36929467 -24.81783706 11.01410238 -19.125 5.0625 C-12.93574523 1.01567957 -7.44096848 -0.62159786 0 0 Z " fill="#000000" transform="translate(408.875,8.0625)"/>
<path d="M0 0 C4.75576638 4.40388232 7.66924713 8.73426244 8.18557608 15.3933847 C8.2612568 18.38840077 8.27123593 21.37753192 8.26069641 24.37350464 C8.26452196 25.52454843 8.26834751 26.67559222 8.27228898 27.86151612 C8.28081217 31.04780677 8.28038914 34.2339499 8.27610838 37.42024446 C8.27363976 40.86000927 8.28265703 44.29974706 8.29014587 47.73950195 C8.30289128 54.4751345 8.30468675 61.21072718 8.30234561 67.94636975 C8.30056205 73.42194475 8.3023129 78.89750765 8.30657005 84.37308121 C8.30716524 85.15261035 8.30776043 85.9321395 8.30837366 86.73529074 C8.30958542 88.31894969 8.31079955 89.90260864 8.31201603 91.48626758 C8.32289104 106.336038 8.32072931 121.18578571 8.31463119 136.0355574 C8.3094625 149.61597216 8.32071626 163.19631518 8.33972941 176.77671574 C8.35910882 190.72582419 8.3673636 204.6748987 8.36360615 218.6240207 C8.36169421 226.45347144 8.36418097 234.28286112 8.37832069 242.11230087 C8.39023681 248.77788277 8.39163684 255.44336603 8.37953053 262.10894929 C8.37364333 265.50844351 8.37253782 268.90775734 8.38453293 272.30723953 C8.39496978 275.99583658 8.38692356 279.68394857 8.3742218 283.37252808 C8.38159609 284.44238005 8.38897037 285.51223202 8.39656812 286.61450374 C8.34606725 293.58392408 7.76535525 299.67925959 3.1328125 305.2421875 C2.47023438 305.78101563 1.80765625 306.31984375 1.125 306.875 C0.46757813 307.42929687 -0.18984375 307.98359375 -0.8671875 308.5546875 C-4.79943189 311.21939524 -8.29942347 312.24949044 -13.0282259 312.25726891 C-14.51968489 312.26694224 -14.51968489 312.26694224 -16.04127437 312.276811 C-17.6687866 312.2721652 -17.6687866 312.2721652 -19.32917786 312.26742554 C-20.48753432 312.27195665 -21.64589079 312.27648776 -22.83934897 312.28115618 C-26.05069732 312.29162575 -29.26190482 312.29312613 -32.47326481 312.29076743 C-35.93827297 312.29035918 -39.40324776 312.30139923 -42.86824036 312.31088257 C-49.65547448 312.32749182 -56.44267387 312.33299208 -63.22992662 312.33410732 C-68.74747877 312.33505785 -74.26501946 312.3391684 -79.78256798 312.34550858 C-95.42836581 312.36312095 -111.07413622 312.37234748 -126.71994404 312.37084763 C-127.56332198 312.37076772 -128.40669992 312.3706878 -129.27563477 312.37060547 C-130.54224767 312.37048283 -130.54224767 312.37048283 -131.83444872 312.37035771 C-145.51841014 312.36954486 -159.20226147 312.3886823 -172.88619105 312.4168822 C-186.93923004 312.44561407 -200.99221534 312.45942232 -215.04528445 312.45769465 C-222.93401818 312.45703084 -230.8226365 312.46251904 -238.71134377 312.48405075 C-245.42820563 312.50226657 -252.14489979 312.50660668 -258.86177567 312.4930319 C-262.28764472 312.48650412 -265.71319206 312.48637767 -269.13903046 312.5037384 C-272.8562654 312.51914755 -276.5726548 312.50990989 -280.28987122 312.49447632 C-281.3681872 312.50476344 -282.44650319 312.51505057 -283.55749542 312.52564943 C-291.50486223 312.4527081 -296.73393672 310.75800899 -302.8125 305.625 C-309.32218154 297.81338216 -308.72945059 289.60415204 -308 280 C-304.41545654 243.95636791 -294.94854257 208.55460636 -279 176 C-278.65727051 175.28714844 -278.31454102 174.57429687 -277.96142578 173.83984375 C-267.84196933 152.7967998 -255.59547095 133.22618512 -241 115 C-239.91138672 113.62134766 -239.91138672 113.62134766 -238.80078125 112.21484375 C-225.58443118 95.72406584 -210.65249833 80.02047195 -194 67 C-192.87144098 66.07305352 -191.74527649 65.1431866 -190.62109375 64.2109375 C-161.67196486 40.33902844 -34.53863544 -27.38994113 0 0 Z " fill="#000000" transform="translate(684,369)"/>
<path d="M0 0 C17.49 0 34.98 0 53 0 C64.35135135 21.56756757 64.35135135 21.56756757 69.69921875 32.4375 C72.05803678 37.19868347 74.48046681 41.91856552 76.97817993 46.60792542 C85.11558407 61.9103068 92.81297588 77.43861163 100.5625 92.93969727 C102.71936731 97.25353507 104.8818023 101.56455726 107.04551888 105.87496281 C108.71930909 109.21147331 110.38949972 112.54977565 112.05865097 115.88860893 C112.85559667 117.4813202 113.65383985 119.07338293 114.45340347 120.66478157 C115.56012138 122.86848467 116.66180503 125.07463206 117.76220703 127.28149414 C118.09247391 127.93640839 118.42274078 128.59132263 118.76301575 129.26608276 C121 133.77165749 121 133.77165749 121 136 C121.66 136 122.32 136 123 136 C123 91.12 123 46.24 123 0 C133.23 0 143.46 0 154 0 C154 53.79 154 107.58 154 163 C136.51 163 119.02 163 101 163 C89.52340776 141.19447475 89.52340776 141.19447475 84.57226562 131.21044922 C83.70680075 129.47234835 82.84133432 127.73424825 81.97580814 125.99617791 C81.07059262 124.17748856 80.16639487 122.3582965 79.26246643 120.53896713 C77.36548536 116.72148881 75.46428844 112.90611929 73.56237793 109.09109497 C68.1637297 98.26071148 62.76884855 87.42846131 57.38183594 76.59228516 C54.3874421 70.56903898 51.38880545 64.54792541 48.38538504 58.52917492 C46.49279118 54.73589511 44.60547788 50.94004971 42.72201443 47.14222884 C41.28369064 44.24589601 39.83755286 41.35346821 38.39257812 38.46044922 C37.87313629 37.40920868 37.35369446 36.35796814 36.81851196 35.27487183 C36.3421933 34.32491333 35.86587463 33.37495483 35.37512207 32.39620972 C34.9622419 31.56638517 34.54936172 30.73656063 34.12397003 29.88158989 C33.13560636 27.84342004 33.13560636 27.84342004 31 27 C31 71.88 31 116.76 31 163 C20.77 163 10.54 163 0 163 C0 109.21 0 55.42 0 0 Z " fill="#000000" transform="translate(1327,398)"/>
<path d="M0 0 C100.61398909 0 100.61398909 0 124.66015625 22.640625 C141.17730072 39.29564212 147.3142727 59.01261684 147.5 82.0625 C147.44029642 92.65209885 146.86411127 102.05225334 143 112 C142.69964844 112.8971875 142.39929687 113.794375 142.08984375 114.71875 C135.17178503 134.12525237 119.74909977 148.40592646 101.625 157.3125 C69.78115913 171.22485766 33.76686484 165 0 165 C0 110.55 0 56.1 0 0 Z M33 30 C33 64.65 33 99.3 33 135 C68.4567575 136.70187084 68.4567575 136.70187084 99.4140625 121.75390625 C112.31918263 107.48198769 114.96371721 92.21985658 114.1953125 73.60205078 C113.32588787 62.01914111 107.74942641 50.65574811 99 43 C98.113125 42.175 97.22625 41.35 96.3125 40.5 C78.60098802 26.27711917 54.04517377 30 33 30 Z " fill="#000000" transform="translate(1020,397)"/>
<path d="M0 0 C1.40897804 0.00333092 1.40897804 0.00333092 2.84642029 0.00672913 C3.90744461 0.00680466 4.96846893 0.00688019 6.06164551 0.00695801 C7.21579453 0.01211929 8.36994354 0.01728058 9.55906677 0.02259827 C10.73404221 0.02401321 11.90901764 0.02542816 13.11959839 0.02688599 C16.88981116 0.0325046 20.65996556 0.04506026 24.43016052 0.05775452 C26.97898779 0.06276712 29.52781599 0.06733044 32.0766449 0.07142639 C38.34033685 0.08248007 44.60399452 0.0992363 50.86766052 0.12025452 C51.29361511 1.3532428 51.7195697 2.58623108 52.15843201 3.85658264 C60.04645767 26.68045085 67.97115668 49.48998332 76.05516052 72.24525452 C82.54419981 90.52473515 89.00187084 108.81510813 95.4176178 127.12043762 C96.42226166 129.9863183 97.42917096 132.85138723 98.43806458 135.71577454 C99.62615599 139.08923278 100.80973691 142.4642393 101.98985672 145.84049416 C102.63930015 147.69493987 103.293334 149.54777594 103.94746399 151.40057373 C104.33370941 152.50858841 104.71995483 153.61660309 105.11790466 154.75819397 C105.45745682 155.72594254 105.79700897 156.6936911 106.14685059 157.69076538 C106.86766052 160.12025452 106.86766052 160.12025452 106.86766052 163.12025452 C95.97766052 163.12025452 85.08766052 163.12025452 73.86766052 163.12025452 C68.3465412 149.3174562 63.70031871 135.17889652 58.86766052 121.12025452 C35.76766052 120.79025452 12.66766052 120.46025452 -11.13233948 120.12025452 C-11.79233948 123.09025452 -12.45233948 126.06025452 -13.13233948 129.12025452 C-13.95185822 131.82871399 -14.79370883 134.50433802 -15.69874573 137.18275452 C-15.93770065 137.9001178 -16.17665558 138.61748108 -16.42285156 139.35658264 C-16.92240075 140.8529126 -17.42413156 142.34851591 -17.92799377 143.84339905 C-18.70176631 146.1408211 -19.46731899 148.44086915 -20.23194885 150.74134827 C-20.72040331 152.20114365 -21.20931852 153.66078497 -21.69874573 155.12025452 C-22.04250999 156.15291443 -22.04250999 156.15291443 -22.39321899 157.20643616 C-24.01677751 162.00469255 -24.01677751 162.00469255 -25.13233948 163.12025452 C-27.58064374 163.20869245 -30.00054547 163.23554203 -32.44874573 163.21791077 C-33.17980026 163.21649582 -33.9108548 163.21508087 -34.6640625 163.21362305 C-37.0076958 163.2080086 -39.35123487 163.19545373 -41.69483948 163.18275452 C-43.28012456 163.17774137 -44.86541113 163.17317815 -46.45069885 163.16908264 C-50.34461558 163.15803448 -54.23846153 163.14076023 -58.13233948 163.12025452 C-42.98566168 117.36737269 -27.4702566 71.73245782 -11.82765198 26.14692688 C-11.14872254 24.16800728 -10.47056099 22.18882583 -9.79249573 20.20960999 C-8.63853522 16.84523993 -7.48039024 13.48235594 -6.31983948 10.12025452 C-5.99974915 9.18705383 -5.67965881 8.25385315 -5.34986877 7.29237366 C-2.87598968 0.1621931 -2.87598968 0.1621931 0 0 Z M19.86766052 27.12025452 C15.46565858 39.9820822 11.07153483 52.84657466 6.68754578 65.71455383 C5.96491554 67.83488963 5.24142468 69.9549288 4.51756287 72.07484436 C3.50434716 75.04668296 2.49682602 78.02034859 1.49266052 80.99525452 C1.21349792 81.81147278 0.93433533 82.62769104 0.64671326 83.46864319 C-0.36226418 86.47693388 -1.13233948 88.9238344 -1.13233948 92.12025452 C15.36766052 92.12025452 31.86766052 92.12025452 48.86766052 92.12025452 C47.30166175 84.89759386 47.30166175 84.89759386 45.2353363 77.92689514 C44.9280661 77.0156488 44.6207959 76.10440247 44.30421448 75.1655426 C43.9771048 74.21216003 43.64999512 73.25877747 43.31297302 72.27650452 C42.79874283 70.76280273 42.79874283 70.76280273 42.27412415 69.21852112 C41.5519298 67.09659447 40.82737343 64.9754704 40.10057068 62.8551178 C38.9966652 59.63194733 37.90235132 56.40563462 36.80906677 53.17884827 C36.10260775 51.10703847 35.39559484 49.03541745 34.68797302 46.96400452 C34.3649118 46.01062195 34.04185059 45.05723938 33.70899963 44.07496643 C31.71388399 38.27716818 29.46028343 32.67701953 26.86766052 27.12025452 C24.55766052 27.12025452 22.24766052 27.12025452 19.86766052 27.12025452 Z " fill="#000000" transform="translate(817.1323394775391,397.87974548339844)"/>
<path d="M0 0 C32.67 0 65.34 0 99 0 C99 9.24 99 18.48 99 28 C76.89 28 54.78 28 32 28 C32 40.54 32 53.08 32 66 C52.79 66 73.58 66 95 66 C95 75.24 95 84.48 95 94 C74.21 94 53.42 94 32 94 C32 107.86 32 121.72 32 136 C54.77 136 77.54 136 101 136 C101 144.91 101 153.82 101 163 C67.67 163 34.34 163 0 163 C0 109.21 0 55.42 0 0 Z " fill="#000000" transform="translate(1195,398)"/>
<path d="M0 0 C31.68 0 63.36 0 96 0 C96 9.24 96 18.48 96 28 C74.88 28 53.76 28 32 28 C32 41.2 32 54.4 32 68 C52.13 68 72.26 68 93 68 C93 76.91 93 85.82 93 95 C72.62612689 96.05155474 52.4048873 96.07501797 32 96 C32 118.11 32 140.22 32 163 C21.44 163 10.88 163 0 163 C0 109.21 0 55.42 0 0 Z " fill="#000000" transform="translate(1729,398)"/>
<path d="M0 0 C11.22 0 22.44 0 34 0 C39.31489611 10.59435957 44.57846559 21.20998342 49.75 31.875 C50.08950684 32.57446747 50.42901367 33.27393494 50.77880859 33.99459839 C57.36785826 47.58066639 63.74669416 61.25605504 70 75 C72.64 75 75.28 75 78 75 C78.29543701 74.30890137 78.59087402 73.61780273 78.89526367 72.90576172 C86.41094776 55.33120023 93.97321482 37.77742244 101.59033203 20.24658203 C102.84276823 17.36211777 104.0919417 14.4762715 105.33984375 11.58984375 C105.97641632 10.12233241 106.61311966 8.65487779 107.25 7.1875 C107.77078125 5.98480469 108.2915625 4.78210938 108.828125 3.54296875 C110 1 110 1 111 0 C113.29151417 -0.08790975 115.58572524 -0.10694038 117.87890625 -0.09765625 C118.90889992 -0.09553383 118.90889992 -0.09553383 119.95970154 -0.09336853 C122.16067801 -0.08775479 124.36155409 -0.07520007 126.5625 -0.0625 C128.05143083 -0.05748676 129.54036324 -0.05292355 131.02929688 -0.04882812 C134.68623075 -0.03778093 138.34310558 -0.02050713 142 0 C141.37736535 3.78238801 140.27633385 6.94062375 138.69140625 10.42578125 C137.95555298 12.05507568 137.95555298 12.05507568 137.20483398 13.71728516 C136.66286377 14.90370605 136.12089355 16.09012695 135.5625 17.3125 C134.98781669 18.58097025 134.41369506 19.8496951 133.84008789 21.11865234 C132.58228083 23.89967939 131.32177681 26.67946314 130.05957031 29.45849609 C126.72116404 36.81362944 123.4107897 44.18141747 120.09707642 51.54769897 C118.94047972 54.11837721 117.78316589 56.68873163 116.62573242 59.2590332 C110.37120569 73.15239523 104.16578897 87.06701427 98 101 C95.03 101 92.06 101 89 101 C89 121.46 89 141.92 89 163 C78.44 163 67.88 163 57 163 C57 142.54 57 122.08 57 101 C54.36 101 51.72 101 49 101 C33.4184573 70.02797294 33.4184573 70.02797294 26.67138672 55.76879883 C23.31124991 48.69094517 19.88056635 41.64920214 16.43359375 34.61328125 C15.93446472 33.59428238 15.43533569 32.57528351 14.92108154 31.52540588 C12.37137943 26.3218901 9.81865466 21.11987427 7.26318359 15.91918945 C6.31733372 13.99042121 5.37153088 12.0616299 4.42578125 10.1328125 C3.97947861 9.22666702 3.53317596 8.32052155 3.073349 7.38691711 C2.66798416 6.55943466 2.26261932 5.73195221 1.8449707 4.87939453 C1.48732132 4.15156769 1.12967194 3.42374084 0.76118469 2.67385864 C0 1 0 1 0 0 Z " fill="#000000" transform="translate(1836,398)"/>
<path d="M0 0 C41.91 0 83.82 0 127 0 C127 9.57 127 19.14 127 29 C111.49 29 95.98 29 80 29 C80 73.22 80 117.44 80 163 C69.11 163 58.22 163 47 163 C47 118.78 47 74.56 47 29 C31.49 29 15.98 29 0 29 C0 19.43 0 9.86 0 0 Z " fill="#000000" transform="translate(1505,398)"/>
<path d="M0 0 C10.89 0 21.78 0 33 0 C33 53.79 33 107.58 33 163 C22.11 163 11.22 163 0 163 C0 109.21 0 55.42 0 0 Z " fill="#000000" transform="translate(1656,398)"/>
<path d="M0 0 C10.56 0 21.12 0 32 0 C33.83393423 1.83393423 33.1262014 4.76701615 33.12698364 7.22570801 C33.12854363 7.8833088 33.13010362 8.54090959 33.13171089 9.21843767 C33.13572266 11.43796513 33.13253058 13.65742507 33.12939453 15.87695312 C33.13074849 17.46166525 33.1325284 19.04637705 33.13470459 20.63108826 C33.13927952 24.94708204 33.13748912 29.26305203 33.1343255 33.57904625 C33.13180221 38.08561647 33.13413936 42.59218459 33.13571167 47.09875488 C33.13753346 54.66821663 33.13512682 62.23766864 33.13037109 69.80712891 C33.12492846 78.57138426 33.12669111 87.33561636 33.1321975 96.09987116 C33.13672838 103.61067482 33.1373793 111.12147147 33.13475883 118.63227606 C33.13319591 123.12428513 33.13300268 127.61628325 33.13629532 132.10829163 C33.13917366 136.33038998 33.13719902 140.55245821 33.13140106 144.7745533 C33.13007327 146.32863884 33.13046791 147.88272689 33.13266373 149.43681145 C33.13537448 151.54933977 33.13199506 153.66177001 33.12698364 155.77429199 C33.12660662 156.95934074 33.12622959 158.1443895 33.12584114 159.36534882 C33 162 33 162 32 163 C21.44 163 10.88 163 0 163 C0 109.21 0 55.42 0 0 Z " fill="#000000" transform="translate(948,398)"/>
</svg>
