<?xml version="1.0" encoding="UTF-8"?>
<svg version="1.1" xmlns="http://www.w3.org/2000/svg" width="2000" height="2000">
<path d="M0 0 C1.54084167 1.50055823 3.06338957 3.0202497 4.5625 4.5625 C5.19671875 5.17609375 5.8309375 5.7896875 6.484375 6.421875 C19.50053404 19.89878303 22.0417035 37.91932045 21.94002342 55.84459686 C21.94316249 57.22018042 21.94761334 58.59576149 21.95323652 59.97133714 C21.96481925 63.72093736 21.95798193 67.47030297 21.94790266 71.21989898 C21.94024635 75.31075351 21.95009049 79.40157393 21.95763266 83.49242353 C21.96843819 90.65219148 21.96815726 97.81189149 21.96049118 104.97166252 C21.94912237 115.61866277 21.95495603 126.26560594 21.9641161 136.91260584 C21.97989939 155.93045685 21.9785497 174.94827759 21.96987936 193.96613146 C21.96232912 210.60909231 21.96036426 227.25204207 21.9639473 243.89500427 C21.96429103 245.55172894 21.96429103 245.55172894 21.96464171 247.24192279 C21.96557574 251.72551537 21.96653094 256.20910794 21.967521 260.6927005 C21.97669552 302.74189951 21.96838154 344.79107925 21.95223031 386.84027528 C21.93799377 424.18861181 21.93926766 461.53691765 21.95361328 498.88525391 C21.96968136 540.85813954 21.97604483 582.83100815 21.96677649 624.80389643 C21.96581436 629.27926286 21.96487583 633.75462929 21.9639473 638.22999573 C21.96359145 639.8828883 21.96359145 639.8828883 21.96322841 641.56917265 C21.95981772 658.20061501 21.9638036 674.83204506 21.97138596 691.46348572 C21.97996554 710.37645041 21.97781535 729.28938014 21.96154372 748.20234048 C21.95273999 758.78387274 21.95215244 769.36532926 21.96348225 779.94685954 C21.97021848 787.01883158 21.9660063 794.090743 21.95296794 801.16270607 C21.94584576 805.18936536 21.94336186 809.2158744 21.95418589 813.24252886 C21.96395331 816.91366663 21.95965097 820.58452235 21.94464391 824.25563999 C21.94024969 826.18124999 21.95038399 828.10687696 21.96130675 830.03246099 C21.8462469 848.03571888 17.66860785 864.17334227 4.796875 877.390625 C4.05953125 878.10734375 3.3221875 878.8240625 2.5625 879.5625 C1.64210938 880.51382812 1.64210938 880.51382812 0.703125 881.484375 C-12.1895867 893.93631023 -29.2778553 897.03585741 -46.53317738 896.94281673 C-47.9129493 896.94625798 -49.29271845 896.95100996 -50.67248192 896.9569377 C-54.44303776 896.96937357 -58.2133655 896.96333093 -61.98392206 896.95410402 C-66.09403746 896.94736777 -70.20411484 896.95807356 -74.31422204 896.96649987 C-81.51093241 896.97885234 -88.70757758 896.98008533 -95.90429497 896.97394943 C-106.60631926 896.96484936 -117.30828337 896.97289766 -128.01030305 896.98424067 C-147.12626409 897.00390174 -166.242198 897.00625605 -185.35816674 897.00104547 C-202.08879461 896.99648737 -218.81941176 896.99708864 -235.55003929 897.00288582 C-237.79472024 897.00364269 -240.03940119 897.00439867 -242.28408214 897.00515376 C-245.66666613 897.00629896 -249.04925013 897.00744884 -252.43183411 897.00861301 C-283.87816028 897.01931731 -315.32448287 897.02404398 -346.77081013 897.01614285 C-347.95608521 897.01584567 -349.1413603 897.0155485 -350.36255281 897.01524232 C-359.98766412 897.01279341 -369.61277538 897.01018181 -379.23788664 897.00755819 C-416.78059701 896.99745614 -454.32326266 897.00581066 -491.8659668 897.02905273 C-534.05309587 897.05512789 -576.24019801 897.06797257 -618.42733544 897.06086498 C-622.92606143 897.06014893 -627.42478742 897.05947454 -631.92351341 897.05882454 C-633.58504326 897.05856983 -633.58504326 897.05856983 -635.28013936 897.05830997 C-651.99705026 897.05600751 -668.71393615 897.06398144 -685.43084145 897.07711601 C-704.44374487 897.09202799 -723.4565897 897.09286941 -742.46949188 897.0750451 C-753.10637095 897.06548353 -763.74311333 897.06691409 -774.37998327 897.08427979 C-781.49019497 897.09477568 -788.60030265 897.09065985 -795.71050413 897.07479975 C-799.75825285 897.06617553 -803.80573393 897.06372457 -807.85346881 897.07906907 C-832.56257312 897.16612245 -854.05507916 896.50415941 -872.93359375 878.28515625 C-884.04600226 866.2019289 -889.64599764 851.74329285 -889.6015625 835.4140625 C-889.59951813 834.52973541 -889.59747375 833.64540833 -889.59536743 832.73428345 C-889.51637876 823.74208864 -888.76913677 814.87311946 -887.8125 805.9375 C-887.7251358 805.0957724 -887.63777161 804.2540448 -887.54776001 803.3868103 C-880.03097771 731.20839709 -864.14065053 661.11443937 -840.4375 592.5625 C-840.03144531 591.38445801 -839.62539062 590.20641602 -839.20703125 588.99267578 C-820.70609298 535.62883463 -796.38610051 483.12364514 -767.29150391 434.65380859 C-765.33215935 431.38685826 -763.39099463 428.10944984 -761.44921875 424.83203125 C-751.41066289 407.96597221 -740.65198742 391.66794744 -729.4375 375.5625 C-728.91575195 374.81307129 -728.39400391 374.06364258 -727.85644531 373.29150391 C-725.09752784 369.34691118 -722.28191924 365.4458536 -719.4375 361.5625 C-718.91381836 360.84336426 -718.39013672 360.12422852 -717.85058594 359.38330078 C-705.33984515 342.21010645 -692.29093063 325.5661937 -678.51245117 309.3894043 C-675.69619425 306.07664954 -672.95707607 302.71568134 -670.25 299.3125 C-665.54853829 293.52281569 -660.43307661 288.14320952 -655.28442383 282.75097656 C-654.63111084 282.06616211 -653.97779785 281.38134766 -653.3046875 280.67578125 C-652.72831543 280.07548096 -652.15194336 279.47518066 -651.55810547 278.85668945 C-649.75686985 276.90801214 -648.02495971 274.92452913 -646.29516602 272.91308594 C-642.02083948 268.01225793 -637.44974643 263.43106981 -632.84765625 258.83984375 C-631.94430038 257.93553116 -631.04094452 257.03121857 -630.11021423 256.09950256 C-628.20953932 254.19815057 -626.30790392 252.29782447 -624.40454102 250.39916992 C-621.98631608 247.98664139 -619.57261042 245.56964919 -617.16022587 243.15128231 C-614.82931599 240.81585425 -612.49456044 238.48427823 -610.16015625 236.15234375 C-609.30470718 235.29487045 -608.44925812 234.43739716 -607.56788635 233.55393982 C-603.21687725 229.21970401 -598.80496747 225.0238161 -594.14056396 221.02745056 C-591.56980044 218.81611761 -589.10629108 216.49874456 -586.625 214.1875 C-582.00316169 209.91730741 -577.24326052 205.88024627 -572.33984375 201.93359375 C-569.04786472 199.24418423 -565.83755506 196.47068046 -562.625 193.6875 C-556.35365129 188.277544 -549.91425036 183.12551056 -543.36376953 178.05908203 C-541.2851239 176.44411401 -539.2182301 174.81484745 -537.15234375 173.18359375 C-527.84909537 165.85726033 -518.38509277 158.85256205 -508.65332031 152.10742188 C-506.35966587 150.50823222 -504.08106094 148.88930543 -501.8046875 147.265625 C-483.90191103 134.53601216 -465.41332994 122.63132562 -446.4375 111.5625 C-445.71965332 111.14194336 -445.00180664 110.72138672 -444.26220703 110.28808594 C-438.67136073 107.01568232 -433.06157896 103.77742889 -427.4375 100.5625 C-426.73351074 100.15950684 -426.02952148 99.75651367 -425.30419922 99.34130859 C-356.35427943 60.03249311 -281.73137824 30.54695152 -62.0625 -13.3125 C-60.77553223 -13.43270508 -59.48856445 -13.55291016 -58.16259766 -13.67675781 C-36.87908667 -15.49807827 -16.89308349 -14.79742109 0 0 Z " fill="#000000" transform="translate(1939.4375,1068.4375)"/>
<path d="M0 0 C1.29942032 0.00983414 1.29942032 0.00983414 2.62509155 0.01986694 C11.54371931 0.14519317 20.36298373 0.90263832 29.2265625 1.8515625 C30.4891539 1.9826088 30.4891539 1.9826088 31.7772522 2.11630249 C103.95566541 9.63308479 174.04962313 25.52341197 242.6015625 49.2265625 C243.77960449 49.63261719 244.95764648 50.03867188 246.17138672 50.45703125 C299.10939897 68.81033708 350.84005599 92.98059252 398.97265625 121.66601562 C401.34039329 123.07152967 403.71713833 124.45898625 406.1015625 125.8359375 C446.75447718 149.34760102 486.02446695 177.09954323 521.66015625 207.71875 C524.4361019 210.08549251 527.25719443 212.38038281 530.1015625 214.6640625 C535.48442187 219.0410737 540.54427592 223.72210377 545.61328125 228.453125 C547.9051466 230.59010564 550.22915007 232.67879598 552.6015625 234.7265625 C564.22397589 244.81612065 575.14136922 255.60786299 586.00585938 266.50048828 C588.48974699 268.98977565 590.97898933 271.47361952 593.46875 273.95703125 C595.07323768 275.56217919 596.67741542 277.167637 598.28125 278.7734375 C599.01366913 279.5038324 599.74608826 280.23422729 600.5007019 280.98675537 C604.51482167 285.01899561 608.36337081 289.14078491 612.07061768 293.45750427 C614.46332801 296.22236153 616.97548596 298.87264986 619.4765625 301.5390625 C623.9194413 306.31413852 628.12479157 311.21475983 632.20703125 316.3046875 C634.48257721 319.08137327 636.82419856 321.77964418 639.19726562 324.47241211 C646.16072071 332.38234626 652.58678509 340.60705597 658.92480469 349.02197266 C661.21155999 352.02858308 663.54850248 354.99444858 665.88476562 357.96264648 C673.11904497 367.16729417 679.96548781 376.5835792 686.6015625 386.2265625 C687.49343262 387.51916992 687.49343262 387.51916992 688.40332031 388.83789062 C709.17849423 418.98814303 728.3177966 449.9499393 745.6015625 482.2265625 C745.9182489 482.81632874 746.2349353 483.40609497 746.56121826 484.01373291 C757.12157225 503.69454618 766.63515166 523.77329778 775.6015625 544.2265625 C775.88173218 544.86339966 776.16190186 545.50023682 776.45056152 546.15637207 C808.55853193 619.20117807 829.97923411 696.39185162 847.9140625 824.8515625 C848.00150726 825.75315094 848.08895203 826.65473938 848.17904663 827.58364868 C850.49414455 851.72238452 849.72558528 871.86049856 833.64453125 891.6328125 C823.15105122 903.00237157 807.94323578 909.9552691 792.6015625 911.2265625 C788.13913481 911.37025345 783.67926947 911.36429452 779.21482849 911.35799026 C777.8511198 911.35964179 776.48741157 911.36172893 775.12370414 911.36421037 C771.37449827 911.36976243 767.62531531 911.36910728 763.87610665 911.36743278 C759.79776421 911.36670059 755.71942818 911.37172718 751.64108849 911.3760078 C743.55136209 911.38358269 735.46164229 911.3857806 727.37191272 911.38633685 C717.68226285 911.38725099 707.99261908 911.39392002 698.30297183 911.40068367 C674.88399815 911.41674069 651.46502512 911.42264656 628.04604692 911.42743242 C616.9667916 911.42976861 605.88753681 911.43337128 594.8082819 911.4371278 C556.8807945 911.44996286 518.95330739 911.46068223 481.02581787 911.4641304 C478.64513079 911.46435203 476.26444372 911.46457382 473.88375664 911.46479575 C471.49733098 911.46501639 469.11090533 911.46523688 466.72447968 911.4654572 C461.93692525 911.46589975 457.14937083 911.46634687 452.36181641 911.46679688 C451.17478202 911.46690627 449.98774762 911.46701566 448.76474249 911.46712836 C410.27409256 911.47075909 371.78346146 911.48667997 333.29281874 911.50998724 C292.59550512 911.53458565 251.89820227 911.54830324 211.200881 911.54949832 C206.73297055 911.54966977 202.26506011 911.5498852 197.79714966 911.55013275 C196.6970295 911.55018852 195.59690933 911.55024429 194.4634522 911.55030175 C176.76302034 911.55145216 159.06260781 911.56247332 141.36218248 911.57701981 C123.56949991 911.59138922 105.77684213 911.59461926 87.98415536 911.58657983 C77.41619566 911.58212574 66.84831596 911.5859754 56.28036678 911.60181834 C49.21592454 911.6115786 42.15153826 911.61038007 35.08709651 911.60038211 C31.06542846 911.59499767 27.04391388 911.59425535 23.02225864 911.60689083 C-2.7979684 911.68267357 -25.80627541 911.63272305 -45.3984375 892.2265625 C-57.55594175 878.19547027 -61.87667588 862.47711837 -61.77875423 844.20428753 C-61.78219438 842.82026221 -61.78694561 841.43623965 -61.7928752 840.05222276 C-61.80532651 836.26520241 -61.79926135 832.47840878 -61.79004152 828.69138765 C-61.78331154 824.56517706 -61.79400795 820.43900454 -61.80243737 816.31280214 C-61.81479572 809.08631162 -61.81602029 801.85988603 -61.80988693 794.63338852 C-61.80079064 783.88711909 -61.80883213 773.14090964 -61.82017817 762.39464481 C-61.8398438 743.20017847 -61.84219268 724.00573913 -61.83698297 704.81126511 C-61.83242562 688.01197837 -61.83302519 671.21270231 -61.83882332 654.41341591 C-61.83958019 652.15989628 -61.84033617 649.90637664 -61.84109126 647.65285701 C-61.84223646 644.25699123 -61.84338634 640.86112545 -61.84455051 637.46525967 C-61.85525553 605.89354472 -61.85998075 574.32183334 -61.85208035 542.7501173 C-61.85178317 541.5600024 -61.851486 540.3698875 -61.85117982 539.14370851 C-61.84873089 529.47917313 -61.8461193 519.81463778 -61.84349569 510.15010244 C-61.83339356 472.4531601 -61.84174801 434.7562623 -61.86499023 397.05932617 C-61.89106298 354.70301387 -61.9039107 312.34672839 -61.89680248 269.99040776 C-61.89608643 265.47399064 -61.89541204 260.95757352 -61.89476204 256.44115639 C-61.89459223 255.32910645 -61.89442242 254.21705651 -61.89424747 253.07130809 C-61.8919446 236.28540991 -61.89992091 219.49953663 -61.91305351 202.71364403 C-61.92796257 183.6231005 -61.92881083 164.53261534 -61.9109826 145.44207307 C-61.90141796 134.76055336 -61.90285785 124.07916976 -61.92021729 113.39765913 C-61.93070787 106.25893216 -61.92660481 99.12030884 -61.91073725 91.98159208 C-61.90210732 87.91671918 -61.89967612 83.85211293 -61.91500657 79.78725376 C-61.92885088 76.08136942 -61.92393083 72.37597838 -61.90472138 68.67012228 C-61.89928716 66.72596425 -61.91324662 64.78178058 -61.92825273 62.83767286 C-61.78045158 44.87392114 -55.86523172 29.83542008 -43.25390625 16.95703125 C-31.29551097 5.52212249 -16.46472359 -0.21770414 0 0 Z " fill="#000000" transform="translate(1132.3984375,24.7734375)"/>
<path d="M0 0 C1.27037109 0.49113281 1.27037109 0.49113281 2.56640625 0.9921875 C15.93214563 6.72334961 27.36501032 19.72569452 32.85671022 32.98446201 C36.5184214 42.64258138 37.43534851 51.75297927 37.38031673 62.02227497 C37.38375688 63.40630029 37.38850811 64.79032285 37.3944377 66.17433974 C37.40688901 69.96136009 37.40082385 73.74815372 37.39160402 77.53517485 C37.38487404 81.66138544 37.39557045 85.78755796 37.40399987 89.91376036 C37.41635822 97.14025088 37.41758279 104.36667647 37.41144943 111.59317398 C37.40235314 122.33944341 37.41039463 133.08565286 37.42174067 143.83191769 C37.4414063 163.02638403 37.44375518 182.22082337 37.43854547 201.41529739 C37.43398812 218.21458413 37.43458769 235.01386019 37.44038582 251.81314659 C37.44114269 254.06666622 37.44189867 256.32018586 37.44265376 258.57370549 C37.44379896 261.96957127 37.44494884 265.36543705 37.44611301 268.76130283 C37.45681803 300.33301778 37.46154325 331.90472916 37.45364285 363.4764452 C37.45319709 365.26161755 37.45319709 365.26161755 37.45274232 367.08285399 C37.45029339 376.74738937 37.4476818 386.41192472 37.44505819 396.07646006 C37.43495606 433.7734024 37.44331051 471.4703002 37.46655273 509.16723633 C37.49262548 551.52354863 37.5054732 593.87983411 37.49836498 636.23615474 C37.49764893 640.75257186 37.49697454 645.26898898 37.49632454 649.78540611 C37.49615473 650.89745605 37.49598492 652.00950599 37.49580997 653.15525441 C37.4935071 669.94115259 37.50148341 686.72702587 37.51461601 703.51291847 C37.52952507 722.603462 37.53037333 741.69394716 37.5125451 760.78448943 C37.50298046 771.46600914 37.50442035 782.14739274 37.52177979 792.82890337 C37.53227037 799.96763034 37.52816731 807.10625366 37.51229975 814.24497042 C37.50366982 818.30984332 37.50123862 822.37444957 37.51656907 826.43930874 C37.53041338 830.14519308 37.52549333 833.85058412 37.50628388 837.55644022 C37.50084966 839.50059825 37.51480912 841.44478192 37.52981523 843.38888964 C37.38199177 861.35535362 31.46347839 876.38335723 18.859375 889.26953125 C5.39026204 902.1314301 -9.47591991 906.31625162 -27.70277691 906.25726891 C-29.08872281 906.25996525 -30.47466724 906.26353476 -31.86060891 906.26789337 C-35.66690147 906.27732883 -39.47309804 906.27435806 -43.27939525 906.26933783 C-47.42130956 906.26606684 -51.56320353 906.27435737 -55.70511132 906.28115618 C-62.96379493 906.29145917 -70.22245185 906.29429945 -77.48114204 906.29224396 C-88.27528559 906.28919476 -99.0693996 906.29751615 -109.8635374 906.30799321 C-130.26363985 906.32734069 -150.66373225 906.33296171 -171.0638428 906.33410732 C-186.81723007 906.33502621 -202.57061341 906.33914187 -218.3239994 906.34550858 C-222.85769043 906.34730365 -227.39138146 906.34908328 -231.92507249 906.35085833 C-233.05214429 906.35130043 -234.17921608 906.35174252 -235.34044157 906.35219802 C-267.04539984 906.3645074 -298.75035673 906.37239904 -330.4553175 906.37151146 C-331.65080425 906.3714803 -332.84629099 906.37144914 -334.07800461 906.37141704 C-340.13730407 906.37125083 -346.19660352 906.37105274 -352.25590297 906.37084763 C-353.45931334 906.37080774 -354.66272371 906.37076785 -355.90260105 906.37072675 C-358.33619038 906.37064587 -360.7697797 906.37056228 -363.20336903 906.37047596 C-401.06764223 906.3692504 -438.93187962 906.38426418 -476.79614258 906.41162109 C-519.33114342 906.44233991 -561.86612072 906.45955371 -604.40113336 906.45769465 C-608.93639616 906.45754539 -613.47165896 906.45744797 -618.00692177 906.45738602 C-619.12362808 906.45736271 -620.2403344 906.4573394 -621.39088029 906.45731538 C-639.36409811 906.45725383 -657.33728485 906.47002731 -675.31049342 906.48725055 C-693.37299646 906.5042014 -711.435454 906.50618514 -729.49796059 906.4930319 C-740.22855702 906.48563916 -750.95901526 906.48931046 -761.68959706 906.50891658 C-768.85986242 906.52091062 -776.03002763 906.51833189 -783.20028839 906.50397559 C-787.2840514 906.49620777 -791.36754689 906.49467457 -795.45129111 906.51089029 C-799.17317648 906.52553942 -802.8945737 906.52146955 -806.61643801 906.50304256 C-808.57158633 906.49802539 -810.52675582 906.51245267 -812.48184964 906.52788812 C-829.7700305 906.38970921 -844.22680023 900.23982141 -856.75 888.37890625 C-868.4302736 876.0294503 -874.37146959 860.12707747 -874.13598633 843.1418457 C-873.81395928 835.70169106 -873.12645583 828.28872259 -872.4375 820.875 C-872.35108246 819.94427673 -872.26466492 819.01355347 -872.17562866 818.05462646 C-865.95376113 752.14644154 -852.5447628 686.93655815 -832 624 C-831.76323547 623.273573 -831.52647095 622.547146 -831.28253174 621.79870605 C-821.17490084 590.869509 -809.50946019 560.60827171 -796 531 C-795.47905762 529.85660156 -794.95811523 528.71320312 -794.42138672 527.53515625 C-768.27690366 470.32323133 -736.82732833 415.35293374 -699 365 C-698.06945801 363.75718262 -698.06945801 363.75718262 -697.12011719 362.48925781 C-688.77178866 351.36493705 -680.2354172 340.4178198 -671.38720703 329.68701172 C-670.1345001 328.16356841 -668.8927474 326.63113365 -667.65234375 325.09765625 C-658.62428973 313.93957134 -649.16072768 303.1659521 -639.4140625 292.6328125 C-637.39774614 290.43378786 -635.43745527 288.20551636 -633.5 285.9375 C-630.2018061 282.1239633 -626.63077901 278.6025402 -623.04467773 275.06396484 C-620.4387652 272.47995073 -617.93950933 269.85795596 -615.5625 267.0625 C-609.01540918 259.41373524 -601.72337072 252.35729444 -594.05859375 245.83984375 C-591.43499955 243.49503755 -588.9703095 241.00349903 -586.5 238.5 C-582.79696507 234.75212955 -579.02353276 231.15575967 -575.015625 227.734375 C-572.69885379 225.74087419 -570.44580016 223.68445612 -568.1875 221.625 C-563.89040173 217.74649273 -559.46241246 214.07134032 -554.9609375 210.43359375 C-552.30230944 208.24846805 -549.6995161 206.0160025 -547.10546875 203.75561523 C-540.09079677 197.65241516 -532.83484205 191.9512103 -525.4140625 186.3515625 C-522.44405381 184.10858033 -519.5043485 181.83314766 -516.5859375 179.5234375 C-507.3873095 172.24930578 -497.9896721 165.43975895 -488.26171875 158.890625 C-484.90517985 156.62903897 -481.62224663 154.29201262 -478.375 151.875 C-471.14666734 146.56686563 -463.5668949 141.80564202 -456 137 C-454.68273926 136.15840332 -454.68273926 136.15840332 -453.33886719 135.29980469 C-380.92627182 89.09899411 -302.60241678 54.17815113 -70 -1 C-69.25256531 -1.09087891 -68.50513062 -1.18175781 -67.73504639 -1.27539062 C-16.42088207 -7.45730283 -16.42088207 -7.45730283 0 0 Z " fill="#000000" transform="translate(892,24)"/>
<path d="M0 0 C1.16805251 -0.00301597 2.33610501 -0.00603194 3.53955305 -0.0091393 C4.82118912 -0.00736983 6.10282519 -0.00560036 7.42329872 -0.00377727 C8.80548916 -0.0054272 10.18767913 -0.00751361 11.56986833 -0.00999737 C15.38434135 -0.01556993 19.19879195 -0.01489052 23.01326775 -0.01321978 C27.15707199 -0.0124896 31.30086986 -0.01750947 35.44467139 -0.0217948 C43.6707181 -0.02938141 51.89675833 -0.03156819 60.12280817 -0.03212385 C69.97295979 -0.03303684 79.8231054 -0.03970243 89.67325444 -0.04647068 C113.48214257 -0.06253959 137.29103007 -0.06843489 161.09992265 -0.07321942 C172.36019198 -0.0755544 183.6204608 -0.07915693 194.88072973 -0.0829148 C233.41600644 -0.09575086 271.95128286 -0.10647019 310.48656166 -0.1099174 C312.90611187 -0.11013904 315.32566209 -0.11036082 317.74521231 -0.11058275 C320.17064905 -0.1108034 322.59608578 -0.11102388 325.02152252 -0.1112442 C329.88747243 -0.11168676 334.75342234 -0.11213387 339.61937225 -0.11258388 C340.82584721 -0.11269327 342.03232216 -0.11280266 343.27535697 -0.11291536 C382.40302652 -0.1165467 421.53067755 -0.13246937 460.65834 -0.15577424 C502.01391125 -0.18036111 543.36947191 -0.1940897 584.72505069 -0.19528532 C589.26341133 -0.19545678 593.80177196 -0.19567221 598.34013259 -0.19591975 C599.45762718 -0.19597552 600.57512176 -0.19603129 601.72647982 -0.19608875 C619.72282097 -0.19724017 637.71914315 -0.20826988 655.71547789 -0.22280681 C673.79857371 -0.23716142 691.88164516 -0.24041464 709.96474512 -0.23236683 C720.71148306 -0.22790574 731.45814241 -0.23179035 742.20487005 -0.24760534 C749.38220538 -0.25734135 756.55948554 -0.25619027 763.73682035 -0.24616911 C767.82712098 -0.24076715 771.91727049 -0.24009887 776.00755872 -0.25267783 C779.73187546 -0.26403576 783.45591845 -0.2614717 787.18022582 -0.24801075 C789.14399111 -0.24444314 791.10776655 -0.25553566 793.07149982 -0.26730204 C809.31538349 -0.17121638 824.19999949 5.33803849 835.95823944 16.74874425 C849.63943399 31.23891379 854.69245613 46.34615993 854.58185661 66.15830541 C854.58499266 67.54323832 854.58944132 68.92816876 854.59506971 70.31309378 C854.60669543 74.1026173 854.59979203 77.8919099 854.58973585 81.68142943 C854.58210079 85.81030355 854.59191535 89.93914327 854.59946585 94.06801248 C854.61028672 101.29909611 854.60998095 108.53011252 854.60232437 115.76119924 C854.59096968 126.51413246 854.5967819 137.26700905 854.60594929 148.0199419 C854.62174351 167.22545237 854.62037852 186.43093289 854.61171255 205.63644621 C854.60416604 222.4435049 854.60219571 239.25055262 854.60578048 256.05761266 C854.60612422 257.72985636 854.60612422 257.72985636 854.60647489 259.43588275 C854.60740891 263.96133163 854.60836411 268.4867805 854.60935418 273.01222936 C854.61853129 315.46485831 854.61021062 357.91746819 854.59406349 400.3700942 C854.57982667 438.08714141 854.58110055 475.80415824 854.59544647 513.52120519 C854.61151017 555.89616511 854.61788046 598.27110818 854.60860968 640.64607072 C854.60764752 645.16327659 854.606709 649.68048246 854.60578048 654.19768834 C854.60542463 655.86606665 854.60542463 655.86606665 854.6050616 657.56814957 C854.6016491 674.36469072 854.60564015 691.16121968 854.61321914 707.95775914 C854.62179377 727.0560671 854.61965912 746.15434042 854.60337691 765.25264406 C854.59456483 775.94143718 854.59399768 786.63015532 854.60531543 797.3189465 C854.61204161 804.4586928 854.60785762 811.59837897 854.59480113 818.73811636 C854.587665 822.8059984 854.58522421 826.87373144 854.59601907 830.94160879 C854.60575082 834.64667626 854.60153455 838.35146337 854.58647709 842.05651064 C854.58205919 844.00753185 854.59224868 845.95856975 854.60313994 847.90956557 C854.49605812 864.7224075 849.3086009 879.75030189 837.44652069 891.95186925 C836.70659881 892.66987706 835.96667694 893.38788487 835.20433319 894.1276505 C834.24913787 895.09638097 834.24913787 895.09638097 833.27464569 896.08468175 C822.32121282 906.51544044 807.78192819 910.7159396 792.95433319 910.5651505 C791.30425262 910.55379064 791.30425262 910.55379064 789.62083709 910.54220128 C759.35436747 909.9767429 729.00461737 905.12929321 699.20433319 900.1276505 C697.96384216 899.91975896 697.96384216 899.91975896 696.69829071 899.70766759 C604.60962079 884.15993798 516.41386518 853.22932467 411.20433319 799.1276505 C410.19386932 798.55724034 409.18340545 797.98683019 408.14232147 797.39913487 C362.70993204 771.70585952 319.13648036 742.49642095 278.83323944 709.291713 C277.0970516 707.86251826 275.35494678 706.44047774 273.60667694 705.026088 C262.35070102 695.90858174 251.46763581 686.37845986 240.83714569 676.541713 C238.63812105 674.52539664 236.40984955 672.56510577 234.14183319 670.6276505 C230.32829649 667.3294566 226.80687339 663.75842951 223.26829803 660.17232823 C220.68428392 657.5664157 218.06228914 655.06715983 215.26683319 652.6901505 C207.61806843 646.14305968 200.56162762 638.85102122 194.04417694 631.18624425 C191.69937074 628.56265005 189.20783222 626.09796 186.70433319 623.6276505 C182.95646274 619.92461557 179.36009286 616.15118326 175.93870819 612.1432755 C173.94520738 609.82650429 171.8887893 607.57345066 169.82933319 605.3151505 C165.95399576 601.02156418 162.28212009 596.59677048 158.64573944 592.10030675 C155.92712515 588.790122 153.13311403 585.55303628 150.32933319 582.3151505 C144.39001595 575.42412148 138.75082462 568.33689803 133.20433319 561.1276505 C132.59541229 560.33938878 131.98649139 559.55112706 131.35911834 558.73897862 C109.28450508 530.13402702 88.67025972 500.19951057 70.20433319 469.1276505 C69.63762908 468.17535558 69.07092498 467.22306066 68.48704803 466.24190831 C39.86686523 417.90318722 15.08660601 367.06960454 -3.79566681 314.1276505 C-4.07325837 313.35201756 -4.35084992 312.57638463 -4.63685334 311.77724767 C-30.73907235 238.72726261 -47.84155038 163.25101137 -55.10816681 86.0026505 C-55.19570221 85.07678136 -55.28323761 84.15091222 -55.3734256 83.19698644 C-57.48210297 60.61568392 -57.27230979 41.09947772 -43.54176056 21.99093175 C-32.82755925 9.3351124 -16.84645833 0.0086259 0 0 Z " fill="#000000" transform="translate(74.7956668138504,1069.8723495006561)"/>
</svg>
