<?xml version="1.0" encoding="UTF-8"?>
<svg version="1.1" xmlns="http://www.w3.org/2000/svg" width="500" height="500">
<path d="M0 0 C0.99 0.495 0.99 0.495 2 1 C2 1.66 2 2.32 2 3 C3.08667969 3.36544922 3.08667969 3.36544922 4.1953125 3.73828125 C9.28538935 6.02810691 12.9912987 10.19048883 17 14 C17.72703125 14.68578125 18.4540625 15.3715625 19.203125 16.078125 C22.76693739 19.52604105 22.76693739 19.52604105 24 21 C24 21.66 24 22.32 24 23 C24.66 23 25.32 23 26 23 C30 28.41176471 30 28.41176471 30 31 C30.66 31 31.32 31 32 31 C37.91105697 42.43473884 42.94171231 53.44772356 46 66 C46.25652344 65.06542969 46.51304687 64.13085938 46.77734375 63.16796875 C50.02733375 51.85351275 54.73326853 41.5093589 60 31 C60.66 31 61.32 31 62 31 C62.28875 30.236875 62.5775 29.47375 62.875 28.6875 C64 26 64 26 66 23 C66.66 23 67.32 23 68 23 C68.3403125 22.195625 68.3403125 22.195625 68.6875 21.375 C71.85978485 15.63467504 76.66551789 10.78922911 82 7 C82.66 7 83.32 7 84 7 C84 6.34 84 5.68 84 5 C106.50757159 -11.7650576 134.65077564 -17.67918054 162.125 -13.6875 C168.93792877 -12.63008322 175.51759204 -11.4070706 182 -9 C183.11375 -8.64035156 183.11375 -8.64035156 184.25 -8.2734375 C200.63065827 -2.50787686 215.45627299 9.3529091 226 23 C226 23.66 226 24.32 226 25 C226.66 25 227.32 25 228 25 C238.23385241 37.03558699 244.36211766 53.58691889 247 69 C247.18304688 69.86753906 247.36609375 70.73507813 247.5546875 71.62890625 C250.95196044 97.34685844 245.22910892 121.06473364 231.875 143 C231.52824219 143.58394531 231.18148438 144.16789063 230.82421875 144.76953125 C229.93995305 146.21620348 228.97628367 147.61376172 228 149 C227.34 149 226.68 149 226 149 C225.72800781 149.58523437 225.45601563 150.17046875 225.17578125 150.7734375 C221.69560813 157.36379855 215.99165715 162.01558716 210.1875 166.5 C209.61217529 166.94553223 209.03685059 167.39106445 208.4440918 167.85009766 C204.26215431 171 204.26215431 171 202 171 C202 171.66 202 172.32 202 173 C190.61950193 178.88301782 179.56750439 184.15452731 167 187 C168.54910474 188.54910474 170.30234915 188.49526958 172.4375 188.875 C182.3057922 190.80940955 190.30061228 193.92093674 199 199 C200.39550735 199.79224115 201.79128821 200.58400098 203.1875 201.375 C204.115625 201.91125 205.04375 202.4475 206 203 C206 203.66 206 204.32 206 205 C206.763125 205.28875 207.52625 205.5775 208.3125 205.875 C211 207 211 207 214 209 C214 209.66 214 210.32 214 211 C214.66 211 215.32 211 216 211 C216 211.66 216 212.32 216 213 C216.66 213 217.32 213 218 213 C218 213.66 218 214.32 218 215 C218.66 215 219.32 215 220 215 C220 215.66 220 216.32 220 217 C220.66 217 221.32 217 222 217 C222 217.66 222 218.32 222 219 C222.66 219 223.32 219 224 219 C225.6755784 221.09145937 227.22495733 223.17719404 228.75 225.375 C229.19956055 226.01912842 229.64912109 226.66325684 230.11230469 227.3269043 C231.41777429 229.21156443 232.70979083 231.1048748 234 233 C234.5878125 233.84433594 235.175625 234.68867188 235.78125 235.55859375 C243.91406621 248.03900587 248.13544197 263.73923521 248.6875 278.5 C248.72512451 279.46687744 248.76274902 280.43375488 248.80151367 281.42993164 C249.49325672 302.47669309 245.71477068 320.26437082 236 339 C235.34 339 234.68 339 234 339 C233.85691406 339.83337891 233.85691406 339.83337891 233.7109375 340.68359375 C230.84975678 350.00601225 221.22813553 358.708845 214 365 C213.34 365 212.68 365 212 365 C212 365.66 212 366.32 212 367 C206.58823529 371 206.58823529 371 204 371 C204 371.66 204 372.32 204 373 C176.89191919 388.54670137 147.28711166 393.70116014 116.6875 385.5 C103.97149826 381.25605421 89.94327596 374.11653167 80 365 C80 364.34 80 363.68 80 363 C79.34 363 78.68 363 78 363 C78 362.34 78 361.68 78 361 C77.34 361 76.68 361 76 361 C76 360.34 76 359.68 76 359 C75.34 359 74.68 359 74 359 C74 358.34 74 357.68 74 357 C73.34 357 72.68 357 72 357 C72 356.34 72 355.68 72 355 C71.34 355 70.68 355 70 355 C68.16877592 352.66162099 66.47550216 350.32989466 64.8125 347.875 C64.31927246 347.14724365 63.82604492 346.4194873 63.31787109 345.66967773 C55.42058977 333.80568416 50.60638761 321.72753995 47 308 C46.76925781 308.87140625 46.53851563 309.7428125 46.30078125 310.640625 C41.80604446 327.05618545 35.08276917 341.8704131 24 355 C23.34 355 22.68 355 22 355 C21.7525 355.61875 21.505 356.2375 21.25 356.875 C19.79371361 359.35068687 18.62187494 359.95125002 16 361 C16 361.66 16 362.32 16 363 C15.34 363 14.68 363 14 363 C14 363.66 14 364.32 14 365 C11.68339482 366.83562802 9.37569423 368.52608301 6.9375 370.1875 C6.21594727 370.68000244 5.49439453 371.17250488 4.75097656 371.67993164 C-2.17965945 376.297585 -9.2988459 379.86471368 -17 383 C-18.00417969 383.40992188 -19.00835937 383.81984375 -20.04296875 384.2421875 C-43.93019373 393.07498054 -72.68383343 390.5248959 -95.62890625 380.3984375 C-103.4379297 376.64393446 -111.20190081 372.41606804 -118 367 C-118 366.34 -118 365.68 -118 365 C-118.66 365 -119.32 365 -120 365 C-120 364.34 -120 363.68 -120 363 C-120.804375 362.690625 -120.804375 362.690625 -121.625 362.375 C-124.91978009 360.46749574 -127.59363628 357.95180616 -130 355 C-130 354.34 -130 353.68 -130 353 C-130.66 353 -131.32 353 -132 353 C-136 347.58823529 -136 347.58823529 -136 345 C-136.66 345 -137.32 345 -138 345 C-142 338.375 -142 338.375 -142 335 C-142.66 335 -143.32 335 -144 335 C-144.93378132 333.00793318 -145.84568288 331.0056142 -146.75 329 C-147.26046875 327.88625 -147.7709375 326.7725 -148.296875 325.625 C-152.98487108 313.72968523 -154.68389144 302.05661627 -154.57641602 289.34594727 C-154.56251973 287.06573806 -154.59683714 284.78963437 -154.63476562 282.50976562 C-154.75553263 258.89791486 -144.37362584 234.14468302 -128 217 C-127.34 217 -126.68 217 -126 217 C-126 216.34 -126 215.68 -126 215 C-125.34 215 -124.68 215 -124 215 C-124 214.34 -124 213.68 -124 213 C-123.34 213 -122.68 213 -122 213 C-122 212.34 -122 211.68 -122 211 C-119.90855579 209.32443374 -117.82269795 207.77516298 -115.625 206.25 C-114.98159668 205.80043945 -114.33819336 205.35087891 -113.67529297 204.88769531 C-111.7906221 203.58107798 -109.89715681 202.2883988 -108 201 C-107.1440625 200.4121875 -106.288125 199.824375 -105.40625 199.21875 C-95.49394236 192.8368533 -83.83962318 188.29251206 -72 188 C-73.670625 187.5978125 -73.670625 187.5978125 -75.375 187.1875 C-102.3158333 180.39062347 -126.24814127 165.0281367 -141 141 C-153.92057889 118.24717572 -160.12013754 92.07424929 -154.828125 65.9921875 C-152.07311044 56.03774808 -148.41268772 46.33453171 -144 37 C-143.34 37 -142.68 37 -142 37 C-141.88527344 36.42765625 -141.77054688 35.8553125 -141.65234375 35.265625 C-140.93817644 32.78528344 -139.92692128 30.93631303 -138.5625 28.75 C-137.91474609 27.69039062 -137.91474609 27.69039062 -137.25390625 26.609375 C-136.84011719 26.07828125 -136.42632812 25.5471875 -136 25 C-135.34 25 -134.68 25 -134 25 C-133.76796875 24.28199219 -133.5359375 23.56398437 -133.296875 22.82421875 C-129.55649802 14.67875924 -120.63644631 8.45800822 -113.5 3.3125 C-112.9009082 2.87848877 -112.30181641 2.44447754 -111.68457031 1.99731445 C-107.38644218 -1 -107.38644218 -1 -104 -1 C-104 -1.66 -104 -2.32 -104 -3 C-70.02512448 -20.94899084 -32.92910718 -17.57313949 0 0 Z " fill="#FCFCFC" transform="translate(204,61)"/>
<path d="M0 0 C0.66 0 1.32 0 2 0 C2.4021875 1.670625 2.4021875 1.670625 2.8125 3.375 C9.3762801 29.4004168 24.46790149 53.56048884 47.86157227 67.7421875 C58.45084782 73.97074643 68.94068901 78.34695158 81 81 C81 81.99 81 82.98 81 84 C80.09378906 84.24234375 79.18757812 84.4846875 78.25390625 84.734375 C52.6879567 91.76839287 30.47118581 106.21469032 16.62890625 129.28515625 C15.37388941 131.5019617 14.18109479 133.74305649 13 136 C12.36771484 137.13501953 12.36771484 137.13501953 11.72265625 138.29296875 C8.00095496 145.22732405 5.95612965 152.41589956 4 160 C0.125 159.125 0.125 159.125 -1 158 C-1.25170266 156.60805394 -1.4753269 155.2110173 -1.6875 153.8125 C-4.91184761 137.31419582 -14.61345478 123.91238923 -26 112 C-26.61230469 111.31292969 -27.22460938 110.62585938 -27.85546875 109.91796875 C-40.07663749 96.7065987 -59.46099008 87.24420993 -77 84 C-77 82.68 -77 81.36 -77 80 C-75.7625 79.70609375 -75.7625 79.70609375 -74.5 79.40625 C-48.93650858 72.78713169 -26.51411857 56.90935544 -13 34 C-6.8796708 23.05954295 -2.47359878 12.30979159 0 0 Z " fill="#03E0D9" transform="translate(249,166)"/>
<path d="M0 0 C0.66 0 1.32 0 2 0 C2.33773437 1.22976562 2.67546875 2.45953125 3.0234375 3.7265625 C3.47387489 5.35939802 3.92440038 6.99220924 4.375 8.625 C4.59671875 9.43324219 4.8184375 10.24148437 5.046875 11.07421875 C6.25021847 15.42749072 7.52135525 19.72989508 9 24 C7.68 24.33 6.36 24.66 5 25 C4.67 21.37 4.34 17.74 4 14 C3.34 14 2.68 14 2 14 C2 11.36 2 8.72 2 6 C1.34 6 0.68 6 0 6 C-0.10570312 6.98355469 -0.21140625 7.96710938 -0.3203125 8.98046875 C-0.94259144 13.31567872 -2.32440663 17.23179209 -3.875 21.3125 C-4.13152344 22.02728516 -4.38804687 22.74207031 -4.65234375 23.47851562 C-6.02582986 27.13999493 -6.66591685 28.7772779 -10 31 C-8.31045592 25.75352101 -6.47234318 20.62322943 -4.4375 15.5 C-2.43046765 10.35546828 -1.01111624 5.42325985 0 0 Z " fill="#3CDFDF" transform="translate(249,166)"/>
<path d="M0 0 C0.99 0.33 1.98 0.66 3 1 C3.7734375 3.58984375 3.7734375 3.58984375 4.375 6.9375 C5.67748812 13.24795047 7.81590244 18.42468294 11 24 C11.33 24 11.66 24 12 24 C12 25.65 12 27.3 12 29 C12.66 29 13.32 29 14 29 C14.33 30.98 14.66 32.96 15 35 C11.04374233 31.58363432 9.1022309 27.77802882 6.9375 23.125 C6.58751953 22.38064697 6.23753906 21.63629395 5.87695312 20.86938477 C2.80576021 14.0727076 1.12366691 7.38576897 0 0 Z " fill="#C6FCFD" transform="translate(251,168)"/>
<path d="M0 0 C3.32825169 3.32825169 3.91536493 7.15364931 4.375 11.75 C4.58125 12.8225 4.7875 13.895 5 15 C6.32 15.66 7.64 16.32 9 17 C9 20.3 9 23.6 9 27 C8.34 27 7.68 27 7 27 C6.71125 25.88625 6.4225 24.7725 6.125 23.625 C5.30758671 19.99708908 5.30758671 19.99708908 3 18 C2.37944461 15.72842568 1.84971939 13.43146491 1.375 11.125 C1.11460937 9.89007813 0.85421875 8.65515625 0.5859375 7.3828125 C0 4 0 4 0 0 Z " fill="#C8FCFB" transform="translate(244,309)"/>
<path d="M0 0 C3.3 0.66 6.6 1.32 10 2 C10 2.99 10 3.98 10 5 C8.55367188 5.39832031 8.55367188 5.39832031 7.078125 5.8046875 C5.81484375 6.15789062 4.5515625 6.51109375 3.25 6.875 C1.99703125 7.22304687 0.7440625 7.57109375 -0.546875 7.9296875 C-3.87266951 8.85811382 -3.87266951 8.85811382 -6.3125 10.15625 C-8 11 -8 11 -10.25 10.625 C-10.8275 10.41875 -11.405 10.2125 -12 10 C-9.36404228 7.36404228 -6.93812819 6.92297888 -3.375 5.875 C-2.18648438 5.52179688 -0.99796875 5.16859375 0.2265625 4.8046875 C1.14179688 4.53914062 2.05703125 4.27359375 3 4 C2.01 2.68 1.02 1.36 0 0 Z " fill="#3DE3DA" transform="translate(320,245)"/>
<path d="M0 0 C0 0.66 0 1.32 0 2 C-1.55780332 2.67756882 -3.12150096 3.34159457 -4.6875 4 C-5.99267578 4.556875 -5.99267578 4.556875 -7.32421875 5.125 C-10.0572002 6.01870488 -12.14700934 6.16449676 -15 6 C-15 6.66 -15 7.32 -15 8 C-14.236875 8.12375 -13.47375 8.2475 -12.6875 8.375 C-10 9 -10 9 -7 11 C-11.3177458 10.49202991 -15.03302114 9.80317221 -19 8 C-18.67 7.01 -18.34 6.02 -18 5 C-14.91015625 3.8671875 -14.91015625 3.8671875 -11.0625 2.875 C-0.10852713 0 -0.10852713 0 0 0 Z " fill="#40DDD7" transform="translate(190,241)"/>
<path d="M0 0 C1.65 0 3.3 0 5 0 C5 0.99 5 1.98 5 3 C9.62 4.32 14.24 5.64 19 7 C14.34465435 8.16383641 11.23268189 7.2861296 6.75 6.0625 C6.00492188 5.86720703 5.25984375 5.67191406 4.4921875 5.47070312 C2.65920614 4.98895802 0.82928182 4.49560775 -1 4 C-0.67 2.68 -0.34 1.36 0 0 Z " fill="#C1F7F8" transform="translate(167,246)"/>
<path d="M0 0 C1.21065165 3.63195496 0.62784815 5.06531629 -0.4375 8.6875 C-0.72496094 9.68136719 -1.01242188 10.67523438 -1.30859375 11.69921875 C-1.53675781 12.45847656 -1.76492187 13.21773438 -2 14 C-3.32 13.67 -4.64 13.34 -6 13 C-6.33 11.35 -6.66 9.7 -7 8 C-5.35 8 -3.7 8 -2 8 C-1.7834375 6.576875 -1.7834375 6.576875 -1.5625 5.125 C-1 2 -1 2 0 0 Z " fill="#38E0DE" transform="translate(255,312)"/>
<path d="M0 0 C2.63538371 6.58845928 -2.48461505 14.93132853 -5 21 C-6.42980469 17.20236589 -5.52225653 14.80264815 -4.1875 11.0625 C-3.83042969 10.04285156 -3.47335938 9.02320313 -3.10546875 7.97265625 C-2.11047305 5.2970671 -1.07605881 2.64389111 0 0 Z " fill="#BAFAF9" transform="translate(259,305)"/>
<path d="M0 0 C1.54919467 4.64758402 -0.57133709 8.10910604 -2.25 12.5625 C-2.56324219 13.43841797 -2.87648437 14.31433594 -3.19921875 15.21679688 C-3.50988281 16.05404297 -3.82054687 16.89128906 -4.140625 17.75390625 C-4.42454102 18.52033447 -4.70845703 19.2867627 -5.00097656 20.07641602 C-6 22 -6 22 -9 24 C-6.41874331 15.82602049 -3.22988119 7.93359166 0 0 Z " fill="#37D7D1" transform="translate(248,173)"/>
<path d="M0 0 C1.32 0.33 2.64 0.66 4 1 C3.61328125 1.50789063 3.2265625 2.01578125 2.828125 2.5390625 C0.3565724 5.80591668 -2.08332079 9.06163502 -4.3125 12.5 C-5.1478125 13.7375 -5.1478125 13.7375 -6 15 C-6.33 15 -6.66 15 -7 15 C-7 13.35 -7 11.7 -7 10 C-6.01 10 -5.02 10 -4 10 C-4 8.35 -4 6.7 -4 5 C-3.01 5 -2.02 5 -1 5 C-0.67 3.35 -0.34 1.7 0 0 Z " fill="#28DAD6" transform="translate(269,284)"/>
<path d="M0 0 C0 4.1098096 -1.64201825 5.06932335 -4.4375 8 C-7.9241547 11.56891664 -7.9241547 11.56891664 -10 16 C-13.0625 17.1875 -13.0625 17.1875 -16 18 C-10.81643758 11.86157082 -5.42287737 5.92658337 0 0 Z " fill="#36D4C9" transform="translate(231,208)"/>
<path d="M0 0 C-2.45779871 1.48006127 -4.91621088 2.95908574 -7.375 4.4375 C-8.42300781 5.06881836 -8.42300781 5.06881836 -9.4921875 5.71289062 C-10.1625 6.11572266 -10.8328125 6.51855469 -11.5234375 6.93359375 C-12.14138184 7.30540771 -12.75932617 7.67722168 -13.39599609 8.06030273 C-14.57314118 8.749927 -15.77975341 9.3898767 -17 10 C-17 8.68 -17 7.36 -17 6 C-13.37009046 3.09607237 -4.45219202 -2.22609601 0 0 Z " fill="#2DDBD3" transform="translate(308,257)"/>
<path d="M0 0 C1.9587043 0.14076315 3.91696093 0.2877676 5.875 0.4375 C7.51082031 0.55931641 7.51082031 0.55931641 9.1796875 0.68359375 C12 1 12 1 14 2 C14 2.66 14 3.32 14 4 C15.32 4.66 16.64 5.32 18 6 C13.68068613 5.38388165 9.74791225 4.35761422 5.625 2.9375 C4.56539063 2.57527344 3.50578125 2.21304688 2.4140625 1.83984375 C1.61742187 1.56269531 0.82078125 1.28554687 0 1 C0 0.67 0 0.34 0 0 Z " fill="#BCFAF9" transform="translate(308,240)"/>
<path d="M0 0 C0.66 0 1.32 0 2 0 C1.48223379 4.10447392 -0.64627444 5.95699523 -3.5625 8.75 C-4.80193359 9.94882812 -4.80193359 9.94882812 -6.06640625 11.171875 C-6.70449219 11.77515625 -7.34257813 12.3784375 -8 13 C-8.66 12.67 -9.32 12.34 -10 12 C-9.04956626 10.66102417 -8.08940853 9.32894573 -7.125 8 C-6.59132813 7.2575 -6.05765625 6.515 -5.5078125 5.75 C-5.01023437 5.1725 -4.51265625 4.595 -4 4 C-3.34 4 -2.68 4 -2 4 C-2 3.34 -2 2.68 -2 2 C-1.34 2 -0.68 2 0 2 C0 1.34 0 0.68 0 0 Z " fill="#AAA9A9" transform="translate(80,274)"/>
<path d="M0 0 C1.65 0.33 3.3 0.66 5 1 C5 2.32 5 3.64 5 5 C2.69 5 0.38 5 -2 5 C-2 5.66 -2 6.32 -2 7 C-4.64 7 -7.28 7 -10 7 C-6.17482487 4.60926555 -2.40334476 4.44033448 2 4 C2 3.01 2 2.02 2 1 C1.34 0.67 0.68 0.34 0 0 Z " fill="#B2F7F4" transform="translate(328,246)"/>
<path d="M0 0 C5.97340271 2.25955676 11.54060049 4.67688725 17 8 C13.88407501 9.03864166 12.9737344 9.09036928 10 8 C9.67 7.34 9.34 6.68 9 6 C6.88984046 4.87293294 6.88984046 4.87293294 4.4375 3.875 C3.61121094 3.52179688 2.78492188 3.16859375 1.93359375 2.8046875 C1.29550781 2.53914063 0.65742188 2.27359375 0 2 C0 1.34 0 0.68 0 0 Z " fill="#CEFDFB" transform="translate(189,255)"/>
<path d="M0 0 C0.33 0.66 0.66 1.32 1 2 C0.05689819 4.38020932 -0.93360715 6.67785482 -2 9 C-2.67276716 10.6642135 -3.34206835 12.32986582 -4 14 C-4.99 14 -5.98 14 -7 14 C-5.53967505 8.68972746 -3.01679014 4.53669968 0 0 Z " fill="#C8FBFC" transform="translate(268,290)"/>
<path d="M0 0 C-1.89453221 0.64964023 -3.79068649 1.29455115 -5.6875 1.9375 C-6.74324219 2.29714844 -7.79898437 2.65679687 -8.88671875 3.02734375 C-11.59050583 3.87206518 -14.21386842 4.50893785 -17 5 C-14.62481389 1.43722083 -13.6439658 1.30592131 -9.625 0.25 C-8.66851562 -0.01296875 -7.71203125 -0.2759375 -6.7265625 -0.546875 C-4.04424693 -0.99264664 -2.53402469 -0.88871008 0 0 Z " fill="#37DDD4" transform="translate(325,251)"/>
<path d="M0 0 C1.32 0.33 2.64 0.66 4 1 C4 4.3 4 7.6 4 11 C3.34 11 2.68 11 2 11 C1.34 7.37 0.68 3.74 0 0 Z " fill="#A8E5E2" transform="translate(249,325)"/>
<path d="M0 0 C5.875 4.625 5.875 4.625 7 8 C5.35 8 3.7 8 2 8 C1 6 0 4 -1 2 C-0.67 1.34 -0.34 0.68 0 0 Z " fill="#2BDBE1" transform="translate(274,215)"/>
<path d="M0 0 C1.98 0 3.96 0 6 0 C6.12375 0.7425 6.2475 1.485 6.375 2.25 C6.9578376 4.81448542 7.78664449 6.69166512 9 9 C7.87105124 8.06725891 6.74699124 7.12859878 5.625 6.1875 C4.99851563 5.66542969 4.37203125 5.14335937 3.7265625 4.60546875 C2 3 2 3 0 0 Z " fill="#2CD3D6" transform="translate(222,276)"/>
<path d="M0 0 C0 0.66 0 1.32 0 2 C-0.66 2 -1.32 2 -2 2 C-2 2.66 -2 3.32 -2 4 C-5.4019487 6.09350689 -8.05272412 6.17942163 -12 6 C-3 0 -3 0 0 0 Z " fill="#36D7CB" transform="translate(202,235)"/>
<path d="M0 0 C1.32 0.33 2.64 0.66 4 1 C4 1.66 4 2.32 4 3 C4.66 3 5.32 3 6 3 C6.33 4.65 6.66 6.3 7 8 C4.35247996 5.42215154 2.05567935 3.08351902 0 0 Z " fill="#D1FDFE" transform="translate(269,208)"/>
<path d="M0 0 C6.625 0.75 6.625 0.75 10 3 C10 3.66 10 4.32 10 5 C5 3 5 3 0 1 C0 0.67 0 0.34 0 0 Z " fill="#20D7D5" transform="translate(178,249)"/>
<path d="M0 0 C-3.465 2.97 -3.465 2.97 -7 6 C-6.75 3.625 -6.75 3.625 -6 1 C-2.69333333 -1.34666667 -2.69333333 -1.34666667 0 0 Z " fill="#2ADCD4" transform="translate(284,273)"/>
<path d="M0 0 C0.33 0 0.66 0 1 0 C1.25 2.3125 1.25 2.3125 1 5 C-1 6.8125 -1 6.8125 -3 8 C-2.45276317 4.62537285 -1.9451 2.91765 0 0 Z " fill="#1EDAD3" transform="translate(235,202)"/>
<path d="M0 0 C-1.04874998 2.62187494 -1.64931313 3.79371361 -4.125 5.25 C-4.74375 5.4975 -5.3625 5.745 -6 6 C-6.33 5.34 -6.66 4.68 -7 4 C-2.25 0 -2.25 0 0 0 Z " fill="#9A9899" transform="translate(89,268)"/>
</svg>
