<?xml version="1.0" encoding="UTF-8"?>
<svg version="1.1" xmlns="http://www.w3.org/2000/svg" width="2000" height="2000">
<path d="M0 0 C660 0 1320 0 2000 0 C2000 660 2000 1320 2000 2000 C1340 2000 680 2000 0 2000 C0 1340 0 680 0 0 Z " fill="#111111" transform="translate(0,0)"/>
<path d="M0 0 C4.54520388 5.71064077 5.14879708 10.19781837 5.14717102 17.27934265 C5.15084771 18.1338074 5.1545244 18.98827214 5.1583125 19.86862975 C5.1693591 22.74274813 5.17319484 25.61683036 5.17700195 28.4909668 C5.18326588 30.54736954 5.18991262 32.60377115 5.19691467 34.66017151 C5.2143312 40.25538995 5.2248783 45.85059985 5.2331202 51.44583869 C5.23826916 54.94100897 5.24434495 58.43617658 5.25063133 61.93134499 C5.26968555 72.86528991 5.283916 83.79922808 5.2922433 94.73318642 C5.30201646 107.35747867 5.32833722 119.98159561 5.36874419 132.60582608 C5.39889831 142.3613464 5.41371153 152.11681644 5.41702431 161.87238246 C5.41937565 167.69990455 5.42834712 173.52723941 5.45348549 179.35471153 C5.47675864 184.83847088 5.48100234 190.32191963 5.47072411 195.80571556 C5.47022845 197.81645236 5.47655761 199.82720441 5.49028015 201.83789444 C5.50799321 204.58754739 5.50089577 207.33608496 5.48774719 210.08573914 C5.49871644 210.87748919 5.50968568 211.66923924 5.52098733 212.48498172 C5.44994004 218.65826118 3.81295456 223.95540393 -0.44731349 228.56649703 C-5.79874885 233.29174822 -10.5875383 233.14965867 -17.43756104 233.15390015 C-18.29696376 233.1582824 -19.15636648 233.16266465 -20.0418117 233.1671797 C-22.92663972 233.18055318 -25.8114372 233.18674328 -28.69628906 233.19287109 C-30.76269163 233.20077311 -32.82909282 233.20904213 -34.89549255 233.21765137 C-41.68552332 233.2438568 -48.47556022 233.25917613 -55.265625 233.2734375 C-57.60321812 233.27879752 -59.9408112 233.28417503 -62.27840424 233.28956985 C-72.00125723 233.31119513 -81.72410857 233.32993238 -91.44697952 233.34119225 C-105.38145274 233.35743586 -119.31564732 233.39062798 -133.2500155 233.44759309 C-143.048017 233.48628336 -152.84594395 233.50582379 -162.64401984 233.51111281 C-168.49616684 233.51476707 -174.34801655 233.52679707 -180.20008087 233.55921555 C-185.70606071 233.58928027 -191.2115631 233.59561346 -196.7176075 233.58383179 C-198.73641552 233.58361093 -200.75524561 233.59192585 -202.77397728 233.60948563 C-205.53472629 233.63218939 -208.29374566 233.62387685 -211.05450439 233.60800171 C-211.84946327 233.6218838 -212.64442215 233.63576588 -213.4634707 233.65006864 C-219.32452894 233.56728142 -223.52710739 231.83093981 -228 228 C-235.09413285 218.33951522 -231.60768603 205.39719455 -230.0390625 194.3203125 C-223.89530886 154.8073045 -206.81387604 117.224197 -182 86 C-181.57702637 85.45988281 -181.15405273 84.91976563 -180.71826172 84.36328125 C-168.24397593 68.53494259 -153.49797085 53.61430524 -137 42 C-136.26297852 41.47277344 -135.52595703 40.94554687 -134.76660156 40.40234375 C-113.77265268 25.49519687 -91.4104297 14.16667264 -67 6 C-66.31405762 5.76990234 -65.62811523 5.53980469 -64.92138672 5.30273438 C-14.73447857 -11.12742377 -14.73447857 -11.12742377 0 0 Z " fill="#FDFDFD" transform="translate(764,1018)"/>
<path d="M0 0 C7.88840134 6.97114537 7.88840134 6.97114537 8.31391239 12.46987915 C8.33996424 14.06515606 8.33874732 15.66102467 8.31568909 17.25634766 C8.32278347 18.13928812 8.32987786 19.02222858 8.33718723 19.93192482 C8.35476196 22.88474945 8.33666501 25.83625689 8.31860352 28.7890625 C8.32374252 30.90827025 8.33102365 33.02747374 8.34028625 35.14666748 C8.35881063 40.89875851 8.34585482 46.6503864 8.32619596 52.40245819 C8.3098169 58.42146855 8.31862132 64.4404494 8.32371521 70.45947266 C8.32823698 80.56745812 8.312361 90.67525857 8.28442383 100.78320312 C8.25237169 112.47011027 8.25238748 124.15668374 8.2696386 135.84361458 C8.28550117 147.08513702 8.27877181 158.32653711 8.26170158 169.5680542 C8.25482818 174.35263322 8.25586656 179.13711425 8.26324654 183.92169189 C8.27090639 189.5557436 8.2587926 195.18941547 8.23139763 200.8234024 C8.22450964 202.89139936 8.22442024 204.95943176 8.23161316 207.02742767 C8.24029932 209.84992679 8.22436572 212.67125144 8.2021637 215.49365234 C8.21040446 216.31252741 8.21864523 217.13140247 8.22713572 217.97509193 C8.15076885 223.23313182 7.13619607 226.18613915 3.6875 230.375 C-1.56429712 235.00158318 -4.74573599 235.52371377 -11.59220886 235.52217102 C-12.4587754 235.52584771 -13.32534195 235.5295244 -14.21816808 235.5333125 C-17.139185 235.54437784 -20.06016639 235.54819801 -22.98120117 235.55200195 C-25.06863519 235.55826449 -27.15606809 235.5649111 -29.24349976 235.57191467 C-34.92755047 235.58934478 -40.61159276 235.59988207 -46.2956636 235.6081202 C-49.84526132 235.61326645 -53.39485641 235.61934237 -56.94445229 235.62563133 C-68.04552057 235.64468963 -79.14658217 235.658919 -90.24766368 235.6672433 C-103.07063652 235.67701688 -115.8934368 235.703337 -128.71634883 235.74374419 C-138.62130131 235.77388731 -148.52620429 235.7887105 -158.43120176 235.79202431 C-164.34980847 235.794377 -170.26823096 235.80336586 -176.18678856 235.82848549 C-181.75589086 235.85173929 -187.3246873 235.85601014 -192.89382553 235.84572411 C-194.9372325 235.84522797 -196.98065438 235.85157122 -199.02401543 235.86528015 C-201.81566844 235.88296036 -204.60621926 235.87591184 -207.39787292 235.86274719 C-208.20489078 235.87371644 -209.01190864 235.88468568 -209.84338158 235.89598733 C-215.44735317 235.83226775 -218.68566522 234.56841362 -223.3125 231.375 C-228.91063717 225.18758523 -228.83749335 219.95518079 -228.50048828 211.93310547 C-227.44661098 197.59216216 -224.58564849 183.09180666 -220.3125 169.375 C-220.08755859 168.62428223 -219.86261719 167.87356445 -219.63085938 167.10009766 C-209.31603682 132.88291913 -191.70191733 100.87243943 -166.859375 75.0390625 C-164.82805274 72.9142745 -162.92340591 70.7711056 -161.0625 68.5 C-158.44701941 65.39649971 -155.5142661 62.79733836 -152.421875 60.17578125 C-151.0343275 58.99122681 -149.66860365 57.78053664 -148.328125 56.54296875 C-115.54346309 26.28494432 -72.57056188 7.51340422 -28.81933594 0.765625 C-26.64855148 0.42736486 -24.48435508 0.06601031 -22.3203125 -0.3125 C-6.20297155 -3.04296717 -6.20297155 -3.04296717 0 0 Z " fill="#FEFEFE" transform="translate(492.3125,746.625)"/>
<path d="M0 0 C0.85925386 -0.00297112 1.71850772 -0.00594224 2.60379958 -0.0090034 C5.49407521 -0.01770154 8.38430947 -0.0191996 11.27459717 -0.02069092 C13.34247425 -0.02531832 15.41035048 -0.03034288 17.47822571 -0.03573608 C23.10437137 -0.04887004 28.7305051 -0.05530705 34.3566637 -0.05974674 C37.8705874 -0.06267602 41.38450782 -0.06678056 44.89842987 -0.07125092 C55.88950595 -0.08492881 66.88057456 -0.09459389 77.87165856 -0.09845281 C90.56497923 -0.10293365 103.25819223 -0.12048158 115.95148015 -0.1494534 C125.7587898 -0.17106205 135.56606915 -0.18115666 145.37340236 -0.18249393 C151.23271365 -0.18354259 157.09192376 -0.18946343 162.95121002 -0.20731354 C168.46365593 -0.22377989 173.97592444 -0.22595663 179.48838615 -0.21717453 C181.51082522 -0.21640337 183.53327376 -0.22075719 185.55568886 -0.23063278 C188.31866877 -0.24333249 191.08101855 -0.23748613 193.84399414 -0.22705078 C194.64254798 -0.23510719 195.44110182 -0.24316359 196.26385427 -0.25146413 C202.08788142 -0.2000918 206.77356346 0.73855479 211.41593325 4.5803563 C215.12826505 8.36967164 216.36948991 11.39865536 216.46910059 16.66943127 C216.44697774 17.8933746 216.44697774 17.8933746 216.42440796 19.14204407 C216.43235677 20.02583896 216.44030558 20.90963385 216.44849527 21.8202104 C216.46768507 24.77014595 216.44414457 27.71814929 216.42059326 30.66802979 C216.42545112 32.78738621 216.43289173 34.90673806 216.44271851 37.02607727 C216.46151557 42.77406142 216.44270461 48.52136321 216.41605425 54.26929402 C216.39340825 60.28562464 216.4016415 66.30192208 216.4055481 72.31828308 C216.40731338 82.42033019 216.38516483 92.5221087 216.34832764 102.62408447 C216.30598165 114.30363536 216.29897534 125.98279297 216.31145155 137.66240507 C216.32284013 148.89913441 216.31154682 160.13572525 216.28910446 171.37243462 C216.27981532 176.15421548 216.27806352 180.93591161 216.28227615 185.71769905 C216.28604304 191.34767581 216.26982625 196.9772522 216.23815536 202.60713768 C216.2296696 204.67351754 216.22796866 206.73993803 216.23353577 208.80632782 C216.2399813 211.62659918 216.22181463 214.44567494 216.19735718 217.26582336 C216.20869515 218.49311278 216.20869515 218.49311278 216.22026217 219.74519593 C216.12633427 225.86546847 214.18162107 229.21717572 210.17596436 233.89044189 C204.98881744 238.21306432 199.71235298 237.13708649 193.34393311 236.61309814 C156.02404914 233.01933154 118.83524312 221.41226305 87.67596436 200.14044189 C87.0328833 199.70796143 86.38980225 199.27548096 85.72723389 198.82989502 C76.03798042 192.29116252 66.93625403 185.30189084 58.21893311 177.51593018 C56.76698242 176.22158047 55.30005802 174.94408378 53.83221436 173.66778564 C49.3684699 169.74856423 45.251323 165.74753931 41.42987061 161.19903564 C40.22437497 159.78412206 38.97924452 158.40233276 37.70330811 157.05059814 C6.96613932 124.41676195 -11.91624435 80.04033136 -18.63653564 36.14044189 C-18.80822266 35.03120361 -18.97990967 33.92196533 -19.15679932 32.77911377 C-21.81606279 14.23501671 -21.81606279 14.23501671 -18.63653564 7.64044189 C-12.71498401 1.23876445 -8.52799394 -0.00915117 0 0 Z " fill="#FEFEFE" transform="translate(284.32403564453125,1017.8595581054688)"/>
<path d="M0 0 C5.83917688 1.86561101 11.57001536 3.99113774 17.28759766 6.19775391 C18.0057666 6.46813477 18.72393555 6.73851562 19.46386719 7.01708984 C50.02199562 18.57809514 76.81461827 36.6513395 100.28759766 59.19775391 C101.18478516 60.05369141 102.08197266 60.90962891 103.00634766 61.79150391 C108.92613114 67.5651199 114.17900114 73.70228754 119.28759766 80.19775391 C120.07908203 81.17228516 120.87056641 82.14681641 121.68603516 83.15087891 C146.9151941 114.82660528 163.69833775 154.45487665 168.91259766 194.57275391 C169.04666016 195.53697266 169.18072266 196.50119141 169.31884766 197.49462891 C171.56528473 214.59505802 171.56528473 214.59505802 168.60009766 220.63525391 C165.45209415 224.12358211 162.78252036 226.69944634 158.28759766 228.19775391 C155.46930965 228.30456538 152.67517238 228.35431972 149.85639954 228.35838318 C148.55020111 228.36601491 148.55020111 228.36601491 147.21761483 228.37380081 C144.28822595 228.3895461 141.35886177 228.39805585 138.42944336 228.40649414 C136.33363182 228.4160309 134.23782187 228.42592198 132.14201355 228.43614197 C125.24915439 228.46754663 118.35628308 228.48779546 111.46337891 228.50634766 C110.29107719 228.50964498 109.11877548 228.5129423 107.91094947 228.51633954 C96.85707578 228.54712025 85.8031994 228.57383062 74.74929523 228.59075832 C60.60548926 228.61267099 46.46206262 228.6546539 32.31840831 228.7241959 C22.37605663 228.77142269 12.43380735 228.79569013 2.49134701 228.80295521 C-3.44806185 228.80791327 -9.3870433 228.82300972 -15.32633018 228.86269951 C-20.91524848 228.89955553 -26.50349505 228.90797857 -32.09251213 228.89469337 C-34.14196713 228.89474734 -36.19145182 228.90505009 -38.24079514 228.92644501 C-41.04343446 228.95413627 -43.84362559 228.94461411 -46.64628601 228.92601013 C-47.45359986 228.94280506 -48.2609137 228.95959999 -49.0926916 228.97690386 C-55.3026732 228.87418711 -59.38736838 226.65823691 -63.71240234 222.19775391 C-66.20739046 218.14450798 -65.99722752 214.18996278 -65.97982788 209.55691528 C-65.98435899 208.67568367 -65.98889011 207.79445205 -65.99355853 206.88651645 C-66.00623861 203.92787202 -66.00457983 200.96941082 -66.00292969 198.01074219 C-66.00891267 195.89183311 -66.01571768 193.77292622 -66.02328491 191.65402222 C-66.04097515 185.89369772 -66.04564156 180.13343262 -66.04691648 174.37308359 C-66.04881413 169.5668172 -66.05617008 164.76056468 -66.06326067 159.95430362 C-66.07955358 148.61633851 -66.08442879 137.27840516 -66.08300781 125.94042969 C-66.081806 114.23882164 -66.10291375 102.53739792 -66.13449514 90.83583653 C-66.1606325 80.79412279 -66.17137618 70.75246935 -66.17009699 60.71072185 C-66.16958663 54.71114621 -66.1753109 48.71173434 -66.19645309 42.71219254 C-66.2157927 37.0700046 -66.21598912 31.4281374 -66.20141983 25.78593826 C-66.19932535 23.71470167 -66.20407048 21.64344522 -66.21614075 19.57224274 C-66.23154863 16.74530293 -66.22231449 13.91947521 -66.20687866 11.09255981 C-66.21716579 10.27232051 -66.22745291 9.45208121 -66.23805177 8.60698617 C-66.17451643 3.34396412 -65.17748123 0.38315176 -61.71240234 -3.80224609 C-47.92477265 -15.31424759 -15.52976362 -4.59323162 0 0 Z " fill="#FEFEFE" transform="translate(603.71240234375,754.80224609375)"/>
<path d="M0 0 C75.62142857 0 75.62142857 0 93.890625 17.76171875 C107.56393512 32.27062005 110.9128663 49.05277977 110.43359375 68.41015625 C109.58981993 83.80574271 101.80078136 97.61507026 90.9375 108.3125 C65.70348661 129.31112245 30.3057602 124 0 124 C0 83.08 0 42.16 0 0 Z " fill="#FBFBFB" transform="translate(1015,1038)"/>
<path d="M0 0 C12.87 0 25.74 0 39 0 C45.35383153 11.9820974 51.56690623 24.01283272 57.58920288 36.16437149 C58.91529535 38.83908786 60.24489922 41.5120334 61.57543945 44.18453979 C65.34917956 51.765189 69.11907172 59.34773602 72.88134766 66.93408203 C75.20252395 71.61394607 77.52945454 76.29090933 79.86016846 80.96603012 C80.74273582 82.73922319 81.62307943 84.51352488 82.50115967 86.28894424 C83.71799917 88.74892353 84.94209059 91.20516004 86.16796875 93.66064453 C86.52844803 94.39395996 86.88892731 95.12727539 87.2603302 95.8828125 C88.92327675 99.58675116 88.92327675 99.58675116 92 102 C92 68.34 92 34.68 92 0 C99.59 0 107.18 0 115 0 C115 40.26 115 80.52 115 122 C101.8 122 88.6 122 75 122 C68.47658285 108.99827443 61.95652318 95.99488044 55.44242859 82.98848152 C52.41789008 76.94972669 49.39185327 70.91173141 46.36230469 64.87548828 C43.44094248 59.05479135 40.52373455 53.23202404 37.60910034 47.40795517 C36.49407603 45.18161397 35.37763927 42.95597961 34.25979614 40.7310524 C32.69944734 37.62478348 31.144051 34.51608355 29.58984375 31.40673828 C29.12230682 30.47885498 28.6547699 29.55097168 28.17306519 28.5949707 C27.75235748 27.75080597 27.33164978 26.90664124 26.89819336 26.03689575 C26.52947617 25.30130495 26.16075897 24.56571415 25.78086853 23.80783272 C25 22 25 22 25 20 C24.01 20 23.02 20 22 20 C22 53.66 22 87.32 22 122 C14.74 122 7.48 122 0 122 C0 81.74 0 41.48 0 0 Z " fill="#FBFBFB" transform="translate(1246,1039)"/>
<path d="M0 0 C13.2 0 26.4 0 40 0 C41.17433594 3.4134375 42.34867188 6.826875 43.55859375 10.34375 C53.03599079 37.86517029 62.61154309 65.34781196 72.36328125 92.7734375 C72.67311447 93.64550842 72.98294769 94.51757935 73.3021698 95.41607666 C74.79919372 99.62870142 76.30046798 103.83971255 77.81005859 108.04785156 C78.36691125 109.60740428 78.92371714 111.1669737 79.48046875 112.7265625 C79.7371785 113.43775238 79.99388824 114.14894226 80.25837708 114.88168335 C82 119.77373059 82 119.77373059 82 122 C73.75 122 65.5 122 57 122 C55.5716474 117.7838092 54.14609125 113.56688112 52.72753906 109.34741211 C52.24413754 107.91229357 51.75912183 106.47771771 51.27246094 105.04370117 C50.57321879 102.98236386 49.87980523 100.91914458 49.1875 98.85546875 C48.76855469 97.61434326 48.34960938 96.37321777 47.91796875 95.09448242 C47 92 47 92 47 89 C29.18 89 11.36 89 -7 89 C-7.99 92.96 -8.98 96.92 -10 101 C-11.19311201 104.7709493 -12.40658853 108.51072735 -13.6875 112.25 C-14.780625 115.4675 -15.87375 118.685 -17 122 C-24.92 122 -32.84 122 -41 122 C-37.62441007 109.62283692 -37.62441007 109.62283692 -35.57080078 103.54541016 C-35.34718148 102.88084368 -35.12356218 102.2162772 -34.89316654 101.53157234 C-34.16366368 99.36633649 -33.42959568 97.20268141 -32.6953125 95.0390625 C-32.17362523 93.49456359 -31.65217159 91.94998576 -31.13093567 90.40533447 C-29.75013847 86.31665902 -28.36500787 82.22946497 -26.97867966 78.14266205 C-26.12397881 75.62198833 -25.27053965 73.10089094 -24.41751099 70.57965088 C-16.43732608 46.99533812 -8.34749218 23.45750966 0 0 Z " fill="#FBFBFB" transform="translate(861,1039)"/>
<path d="M0 0 C24.42 0 48.84 0 74 0 C74 6.6 74 13.2 74 20 C57.5 20 41 20 24 20 C24 29.9 24 39.8 24 50 C39.51 50 55.02 50 71 50 C71 56.6 71 63.2 71 70 C55.49 70 39.98 70 24 70 C24 80.56 24 91.12 24 102 C41.16 102 58.32 102 76 102 C76 108.6 76 115.2 76 122 C50.92 122 25.84 122 0 122 C0 81.74 0 41.48 0 0 Z " fill="#FAFAFA" transform="translate(1146,1039)"/>
<path d="M0 0 C23.43 0 46.86 0 71 0 C71 6.6 71 13.2 71 20 C55.49 20 39.98 20 24 20 C24 30.23 24 40.46 24 51 C38.85 51 53.7 51 69 51 C69 57.6 69 64.2 69 71 C54.15 71 39.3 71 24 71 C24 87.83 24 104.66 24 122 C16.08 122 8.16 122 0 122 C0 81.74 0 41.48 0 0 Z " fill="#FCFCFC" transform="translate(1547,1039)"/>
<path d="M0 0 C8.25 0 16.5 0 25 0 C25.78761719 1.70800781 26.57523438 3.41601562 27.38671875 5.17578125 C28.48643019 7.55494338 29.58661081 9.93388309 30.6875 12.3125 C30.97434662 12.93259949 31.26119324 13.55269897 31.55673218 14.19158936 C34.9037457 21.42074837 38.28437565 28.63139416 41.7578125 35.80078125 C42.05820938 36.42114761 42.35860626 37.04151398 42.66810608 37.68067932 C44.11773786 40.67085513 45.57360837 43.65783271 47.03588867 46.6418457 C47.55642822 47.71136475 48.07696777 48.78088379 48.61328125 49.8828125 C49.07516846 50.82527832 49.53705566 51.76774414 50.01293945 52.73876953 C51 55 51 55 51 57 C53.31 57 55.62 57 58 57 C58.27384521 56.14220947 58.54769043 55.28441895 58.82983398 54.40063477 C59.98388881 51.04682093 61.30320242 47.83955128 62.72265625 44.58984375 C62.98435608 43.9885112 63.24605591 43.38717865 63.51568604 42.7676239 C64.36236107 40.82325389 65.21244928 38.88039623 66.0625 36.9375 C66.94121746 34.92136418 67.81899532 32.90482106 68.69670105 30.88824463 C69.28415779 29.53863485 69.8718957 28.18914742 70.45991516 26.83978271 C74.34932453 17.91147153 78.17158185 8.95460517 82 0 C89.59 0 97.18 0 105 0 C101.62494477 10.12516569 101.62494477 10.12516569 100.08984375 13.49633789 C99.74483322 14.2598204 99.39982269 15.02330292 99.0443573 15.80992126 C98.67909439 16.60612381 98.31383148 17.40232635 97.9375 18.22265625 C97.54923538 19.07843765 97.16097076 19.93421906 96.76094055 20.81593323 C95.51159636 23.56676954 94.25592687 26.31466373 93 29.0625 C92.14050453 30.9514943 91.28137504 32.84065516 90.42260742 34.72998047 C87.9545007 40.15611147 85.47824013 45.5784913 83 51 C82.34453 52.43504316 81.6890911 53.87010052 81.03369141 55.30517578 C78.03243418 61.87470853 75.02332992 68.4405934 72 75 C70.02 75 68.04 75 66 75 C66 90.51 66 106.02 66 122 C58.08 122 50.16 122 42 122 C42 106.49 42 90.98 42 75 C40.02 75 38.04 75 36 75 C32.63936509 68.15877656 29.28063775 61.31661883 25.9230957 54.47387695 C24.78614146 52.15726671 23.64878659 49.84085304 22.51098633 47.5246582 C16.52128569 35.3308664 10.55285397 23.12746148 4.67578125 10.87890625 C4.20206589 9.89437973 3.72835052 8.90985321 3.24028015 7.89549255 C2.8120546 7.00000198 2.38382904 6.10451141 1.94262695 5.18188477 C1.5657222 4.39499771 1.18881744 3.60811066 0.80049133 2.79737854 C0 1 0 1 0 0 Z " fill="#FAFAFA" transform="translate(1628,1039)"/>
<path d="M0 0 C40.6875 0 40.6875 0 52.67578125 11.625 C59.81320937 19.27603957 62.1786005 28.0155772 62.1875 38.25 C62.20586914 39.33861328 62.20586914 39.33861328 62.22460938 40.44921875 C62.25259154 50.91454801 59.002162 61.0723735 51.75 68.8125 C36.9889859 82.38879063 20.05757142 79 0 79 C0 52.93 0 26.86 0 0 Z " fill="#121212" transform="translate(1039,1060)"/>
<path d="M0 0 C31.35 0 62.7 0 95 0 C95 6.93 95 13.86 95 21 C83.12 21 71.24 21 59 21 C59 54.33 59 87.66 59 122 C51.41 122 43.82 122 36 122 C36 88.67 36 55.34 36 21 C24.12 21 12.24 21 0 21 C0 14.07 0 7.14 0 0 Z " fill="#FCFCFC" transform="translate(1379,1039)"/>
<path d="M0 0 C7.92 0 15.84 0 24 0 C24 40.26 24 80.52 24 122 C16.08 122 8.16 122 0 122 C0 81.74 0 41.48 0 0 Z " fill="#F9F9F9" transform="translate(1493,1039)"/>
<path d="M0 0 C7.92 0 15.84 0 24 0 C24 40.26 24 80.52 24 122 C16.08 122 8.16 122 0 122 C0 81.74 0 41.48 0 0 Z " fill="#FBFBFB" transform="translate(961,1039)"/>
<path d="M0 0 C2.31 0 4.62 0 7 0 C8.79741849 5.10423956 10.59384966 10.20882518 12.3894043 15.3137207 C12.99916529 17.04688689 13.6091864 18.77996159 14.21948242 20.51293945 C15.10144941 23.01749493 15.98245089 25.52238833 16.86328125 28.02734375 C17.13215652 28.79022202 17.4010318 29.55310028 17.67805481 30.33909607 C18.45753885 32.55752307 19.22976259 34.77834731 20 37 C20.42688614 38.21515793 20.42688614 38.21515793 20.86239624 39.4548645 C21.13750031 40.25294525 21.41260437 41.051026 21.69604492 41.87329102 C21.94617844 42.59283463 22.19631195 43.31237823 22.45402527 44.0537262 C23 46 23 46 23 49 C10.46 49 -2.08 49 -15 49 C-13.875 40 -13.875 40 -12.60131836 36.328125 C-12.32110336 35.50787842 -12.04088837 34.68763184 -11.75218201 33.8425293 C-11.45111038 32.98699463 -11.15003876 32.13145996 -10.83984375 31.25 C-10.37584923 29.90192261 -10.37584923 29.90192261 -9.90248108 28.52661133 C-8.9214637 25.68181728 -7.92967764 22.84091845 -6.9375 20 C-6.26686071 18.06144596 -5.59693154 16.1226461 -4.92773438 14.18359375 C-3.29335559 9.45284649 -1.64931429 4.72555985 0 0 Z " fill="#151515" transform="translate(877,1059)"/>
</svg>
