<?xml version="1.0" encoding="UTF-8"?>
<svg version="1.1" xmlns="http://www.w3.org/2000/svg" width="2000" height="2000">
<path d="M0 0 C660 0 1320 0 2000 0 C2000 660 2000 1320 2000 2000 C1340 2000 680 2000 0 2000 C0 1340 0 680 0 0 Z " fill="#111111" transform="translate(0,0)"/>
<path d="M0 0 C9.9 0 19.8 0 30 0 C30 76.23 30 152.46 30 231 C22.08 231 14.16 231 6 231 C5.67 220.44 5.34 209.88 5 199 C2.69 202.96 0.38 206.92 -2 211 C-13.41525679 224.8430723 -29.03712726 233.71100447 -46.8125 236.625 C-69.10781317 238.72833143 -90.97140326 235.34105474 -109.125 221.25 C-110.76922735 219.85569521 -112.394134 218.43831979 -114 217 C-114.83402344 216.26007813 -115.66804687 215.52015625 -116.52734375 214.7578125 C-130.82892364 201.31564958 -138.4255199 184.10675335 -142 165 C-142.18433594 164.13246094 -142.36867188 163.26492188 -142.55859375 162.37109375 C-145.93552414 136.58090859 -141.30428088 110.28558699 -126 89 C-114.85962361 75.01912981 -101.37571195 64.00173973 -84 59 C-83.38987061 58.82267334 -82.77974121 58.64534668 -82.15112305 58.46264648 C-75.19855461 56.66345021 -68.3346896 56.66840008 -61.1875 56.6875 C-59.99318359 56.67138672 -58.79886719 56.65527344 -57.56835938 56.63867188 C-40.60782413 56.62943914 -24.9245072 61.85020125 -12 73 C-7.95316049 77.07099975 -4.18681317 81.21978024 -1 86 C-0.67 57.62 -0.34 29.24 0 0 Z " fill="#FDFDFD" transform="translate(754,856)"/>
<path d="M0 0 C17.49 0 34.98 0 53 0 C62.55772902 25.40957226 72.06881602 50.83276835 81.4375 76.3125 C87.98500136 94.11766454 94.5571461 111.91301353 101.1875 129.6875 C101.93989622 131.70563429 102.69225596 133.72378219 103.44458008 135.74194336 C106.78503832 144.70172003 110.12659322 153.66108582 113.4713316 162.61926556 C116.46421192 170.63521307 119.45436824 178.65216845 122.44057751 186.67060375 C123.92508242 190.65636409 125.41098 194.64159278 126.90023804 198.62557983 C128.30256447 202.37704889 129.70134028 206.1298227 131.09747505 209.88360023 C131.61611671 211.27612416 132.13606421 212.66816251 132.6573925 214.05968285 C133.37553043 215.97714106 134.08895359 217.89629075 134.80126953 219.81591797 C135.20362823 220.89453094 135.60598694 221.97314392 136.02053833 223.08444214 C137 226 137 226 138 231 C127.44 231 116.88 231 106 231 C103.33327405 223.76475144 100.66659577 216.52948558 98.00035095 209.29405975 C96.7583319 205.92361505 95.51623184 202.55320025 94.27392578 199.18286133 C93.07418567 195.9279924 91.87468148 192.67303662 90.67533112 189.41802406 C90.00203586 187.59089522 89.32850523 185.76385311 88.65496826 183.93681335 C88.23483459 182.79646133 87.81470093 181.65610931 87.38183594 180.48120117 C87.01765564 179.49302902 86.65347534 178.50485687 86.27825928 177.48674011 C84.50923793 172.66133591 82.75637192 167.83002277 81 163 C45.03 162.67 9.06 162.34 -28 162 C-28.99 165.3 -29.98 168.6 -31 172 C-31.66729118 174.01004876 -32.34920876 176.01537052 -33.05297852 178.01293945 C-33.42669083 179.07716629 -33.80040314 180.14139313 -34.18544006 181.23786926 C-34.57928391 182.35175522 -34.97312775 183.46564117 -35.37890625 184.61328125 C-35.79164291 185.78585983 -36.20437958 186.95843842 -36.62962341 188.16654968 C-37.49669911 190.62842697 -38.36488563 193.08991328 -39.23413086 195.55102539 C-40.5643041 199.31760857 -41.89082822 203.08545052 -43.21679688 206.85351562 C-44.0622873 209.25267913 -44.90798325 211.65177023 -45.75390625 214.05078125 C-46.14977432 215.17478836 -46.5456424 216.29879547 -46.95350647 217.4568634 C-47.32406662 218.50532944 -47.69462677 219.55379547 -48.07641602 220.6340332 C-48.40045914 221.5520723 -48.72450226 222.47011139 -49.05836487 223.41596985 C-49.98673638 225.96360203 -50.99296931 228.48242327 -52 231 C-62.23 231 -72.46 231 -83 231 C-82.34252724 227.71263619 -81.73790411 224.98772589 -80.64331055 221.89892578 C-80.36676636 221.11357452 -80.09022217 220.32822327 -79.80529785 219.51907349 C-79.3506012 218.2450618 -79.3506012 218.2450618 -78.88671875 216.9453125 C-78.56562134 216.03772186 -78.24452393 215.13013123 -77.91369629 214.19503784 C-76.84205258 211.17034478 -75.76497638 208.14761981 -74.6875 205.125 C-73.92288663 202.9726727 -73.15832056 200.8203286 -72.39379883 198.66796875 C-66.32040975 181.59649127 -60.13619955 164.56583509 -53.92660522 147.54351807 C-47.54677715 130.05392856 -41.24543464 112.53800733 -35 95 C-28.50800632 76.77849342 -21.98036445 58.57047556 -15.38208008 40.38720703 C-14.51358988 37.9933556 -13.64605111 35.59915874 -12.77954102 33.20458984 C-11.57605614 29.88009549 -10.36869324 26.55703561 -9.16015625 23.234375 C-8.81203384 22.27118347 -8.46391144 21.30799194 -8.10523987 20.31561279 C-5.59605591 13.43815317 -2.82345827 6.77629985 0 0 Z " fill="#FCFCFC" transform="translate(348,856)"/>
<path d="M0 0 C0.77097015 0.00459229 1.54194031 0.00918457 2.33627319 0.01391602 C24.75585295 0.19776652 42.63847379 6.28213647 58.6875 22.5625 C59.62142578 23.48095703 59.62142578 23.48095703 60.57421875 24.41796875 C79.20494186 44.05349491 80.6875 69.57905034 80.6875 95.5625 C36.4675 95.5625 -7.7525 95.5625 -53.3125 95.5625 C-48.81475716 122.06771854 -48.81475716 122.06771854 -32.82421875 142.8125 C-18.09068906 153.07785194 -0.16021297 154.87500994 17.3125 151.8125 C24.44174997 150.04881795 30.76041332 146.8731085 36.6875 142.5625 C37.533125 141.985 38.37875 141.4075 39.25 140.8125 C44.28425928 136.16549144 46.53412555 131.02262335 48.6875 124.5625 C58.2575 124.5625 67.8275 124.5625 77.6875 124.5625 C73.08704366 142.96432534 65.40377666 158.46910804 48.6875 168.5625 C38.68719532 174.44579613 29.01077784 177.3478526 17.6875 179.5625 C16.89102051 179.739021 16.09454102 179.91554199 15.27392578 180.09741211 C-8.11214828 184.30266707 -31.72549956 178.06835745 -50.96484375 164.72265625 C-68.25163571 151.69763118 -78.81495278 131.11841249 -81.83813477 109.86767578 C-82.58119281 103.75041633 -82.49848491 97.61666514 -82.49780273 91.46411133 C-82.49998453 89.26558929 -82.51817644 87.067574 -82.53710938 84.86914062 C-82.635655 60.80888528 -74.99087168 39.16744789 -58.3125 21.5625 C-52.64662359 16.02293294 -46.51458231 11.8543744 -39.5 8.25 C-38.89728271 7.93651611 -38.29456543 7.62303223 -37.67358398 7.30004883 C-25.42177627 1.34989789 -13.38762004 -0.15995327 0 0 Z " fill="#FDFDFD" transform="translate(912.3125,912.4375)"/>
<path d="M0 0 C10.23 0 20.46 0 31 0 C32.65322266 4.7953125 32.65322266 4.7953125 34.33984375 9.6875 C42.08513374 32.13230251 49.8703745 54.56150242 57.8125 76.9375 C58.1606073 77.91882904 58.5087146 78.90015808 58.86737061 79.91122437 C61.90870508 88.48471313 64.95302027 97.05714009 68.00195312 105.62792969 C69.57036981 110.03800669 71.13416869 114.44969618 72.69467163 118.86257935 C73.26747771 120.47963808 73.84200739 122.09608743 74.41836548 123.71188354 C75.20116093 125.90669317 75.97823203 128.10344676 76.75390625 130.30078125 C77.40854858 132.14410034 77.40854858 132.14410034 78.07641602 134.0246582 C79 137 79 137 79 140 C81.31 140 83.62 140 86 140 C86.14695312 139.35417969 86.29390625 138.70835937 86.4453125 138.04296875 C87.95423567 131.70375703 89.74865356 125.50903922 91.75 119.3125 C94.16735178 111.81848194 96.34978628 104.2796634 98.4375 96.6875 C100.87922932 87.82310726 103.53022912 79.05922244 106.37255859 70.31591797 C108.95257512 62.31051175 111.209314 54.22917609 113.44091797 46.12084961 C115.42318645 38.95534506 117.57474495 31.86555459 119.8581543 24.79101562 C122.48814461 16.59336526 124.74047819 8.30706548 127 0 C136.9 0 146.8 0 157 0 C154.75014351 10.1243542 154.75014351 10.1243542 153.65893555 13.69921875 C153.29296516 14.90723145 153.29296516 14.90723145 152.91960144 16.13964844 C152.66125015 16.98043945 152.40289886 17.82123047 152.13671875 18.6875 C151.86285843 19.58887695 151.58899811 20.49025391 151.30683899 21.41894531 C150.43687543 24.28026723 149.56239582 27.14018279 148.6875 30 C147.54430882 33.74961551 146.40289145 37.49976975 145.26171875 41.25 C144.98093475 42.17176025 144.70015076 43.09352051 144.41085815 44.04321289 C142.52299 50.25006147 140.67420035 56.46728458 138.85147095 62.69352722 C133.15605833 82.13744817 127.20867716 101.50723045 121.31079102 120.89038086 C117.14706741 134.5763672 113.00052737 148.26534451 109 162 C93.84233035 213.90724931 93.84233035 213.90724931 72.1796875 227.109375 C62.10849079 232.58743179 50.78762987 235.17255135 39.41796875 235.09765625 C38.19670036 235.09553383 38.19670036 235.09553383 36.95075989 235.09336853 C34.36296844 235.08779317 31.77526508 235.07524524 29.1875 235.0625 C27.42773563 235.05748181 25.66796989 235.05291946 23.90820312 235.04882812 C19.60540791 235.03868481 15.302802 235.0191047 11 235 C11 226.09 11 217.18 11 208 C14.36445312 207.94392578 14.36445312 207.94392578 17.796875 207.88671875 C20.01131997 207.84027741 22.22561079 207.78912705 24.43994141 207.73754883 C25.95839778 207.70465054 27.47696616 207.6765141 28.99560547 207.65356445 C48.08480784 207.48044065 48.08480784 207.48044065 64 198 C69.02988362 191.99923186 71.66591801 185.39768961 74 178 C74.37382813 176.81535156 74.74765625 175.63070313 75.1328125 174.41015625 C76.10526654 171.27858222 77.05466382 168.1398666 78 165 C72.06 165 66.12 165 60 165 C56.68786082 157.81086069 53.90210805 150.50398708 51.2109375 143.0625 C50.75063167 141.79710299 50.29002199 140.53181647 49.82913208 139.26663208 C48.85020453 136.57767127 47.87317618 133.88803155 46.89770508 131.19781494 C45.3562673 126.94693935 43.81044852 122.69766587 42.26367188 118.44873047 C41.73980651 117.00961326 41.21594177 115.57049583 40.69207764 114.13137817 C40.43237938 113.41798405 40.17268112 112.70458992 39.90511322 111.96957779 C39.11573687 109.80070179 38.32676967 107.63167733 37.53790283 105.46261597 C33.24819984 93.66940858 28.9305399 81.88660628 24.59765625 70.10919189 C23.50695539 67.14390957 22.41736158 64.17822282 21.328125 61.21240234 C18.1128834 52.45898629 14.89336197 43.70721105 11.65997314 34.96047974 C10.23275313 31.09735479 8.80925904 27.23286349 7.38647461 23.36810303 C6.71881799 21.5574289 6.04941953 19.74739598 5.37817383 17.93804932 C4.46389256 15.47330616 3.55548698 13.00647435 2.6484375 10.5390625 C2.24212601 9.45075134 2.24212601 9.45075134 1.8276062 8.3404541 C0.75814531 5.41544952 0 3.14159775 0 0 Z " fill="#FCFCFC" transform="translate(1574,918)"/>
<path d="M0 0 C11.92616885 9.54973668 18.31577119 23.95858339 21.1171875 38.6953125 C21.38473343 39.93930061 21.38473343 39.93930061 21.65768433 41.2084198 C23.89437551 53.10576802 23.36627908 65.19132814 23.3125 77.24609375 C23.30876413 79.71615992 23.30591987 82.18622759 23.30392456 84.65629578 C23.29633329 91.11868469 23.276724 97.58098195 23.2545166 104.04333496 C23.23396055 110.65322633 23.22490207 117.26313268 23.21484375 123.87304688 C23.19347344 136.81384858 23.15832853 149.75455853 23.1171875 162.6953125 C13.2171875 162.6953125 3.3171875 162.6953125 -6.8828125 162.6953125 C-6.89739502 159.42592773 -6.91197754 156.15654297 -6.92700195 152.78808594 C-6.97746184 141.95543055 -7.044077 131.12291719 -7.11852741 120.29040146 C-7.16315086 113.72616568 -7.20242476 107.16199082 -7.22924805 100.59765625 C-7.25536091 94.25626361 -7.29581995 87.91510642 -7.34599876 81.57386017 C-7.36261352 79.16114493 -7.37416121 76.74838901 -7.38042641 74.33562469 C-7.39012613 70.9419264 -7.41825592 67.54882321 -7.45043945 64.15527344 C-7.44900436 63.16983551 -7.44756927 62.18439758 -7.4460907 61.1690979 C-7.60961903 48.88240662 -10.50467077 37.63799785 -18.95703125 28.4375 C-28.68844514 19.23256749 -38.43107575 17.38570826 -51.546875 17.55078125 C-62.81861343 18.03913526 -72.35956618 21.19126289 -80.7578125 29.0078125 C-89.59790469 38.65154943 -92.33345847 50.26186444 -92.31518555 63.02001953 C-92.3253772 64.10412613 -92.33556885 65.18823273 -92.34606934 66.30519104 C-92.37603378 69.85455606 -92.38544009 73.40365047 -92.39453125 76.953125 C-92.41139017 79.42748907 -92.42954203 81.90184463 -92.44892883 84.37619019 C-92.49630293 90.86321354 -92.52619383 97.3502024 -92.55236816 103.83734131 C-92.58223721 110.46715255 -92.62874572 117.09683855 -92.67382812 123.7265625 C-92.75971815 136.71609721 -92.82558779 149.70561985 -92.8828125 162.6953125 C-103.1128125 162.6953125 -113.3428125 162.6953125 -123.8828125 162.6953125 C-123.8828125 106.9253125 -123.8828125 51.1553125 -123.8828125 -6.3046875 C-115.9628125 -6.3046875 -108.0428125 -6.3046875 -99.8828125 -6.3046875 C-99.5528125 5.2453125 -99.2228125 16.7953125 -98.8828125 28.6953125 C-97.2328125 24.7353125 -95.5828125 20.7753125 -93.8828125 16.6953125 C-85.96698573 3.11612999 -74.46263997 -5.55337396 -59.5078125 -10.1796875 C-39.48778089 -14.6373757 -16.83347027 -11.92121204 0 0 Z " fill="#FCFCFC" transform="translate(1159.8828125,924.3046875)"/>
<path d="M0 0 C0.84691406 0.37253906 1.69382812 0.74507812 2.56640625 1.12890625 C15.23968686 7.45452631 24.3308359 18.7777762 29 32 C31.52786321 39.70179905 31.39670579 47.47437012 31.375 55.5 C31.37478851 56.21520813 31.37457703 56.93041626 31.37435913 57.66729736 C31.31791397 76.73291996 27.89091796 93.90743969 14 108 C-1.07791828 120.5715104 -17.82237233 123.40746017 -37 122 C-49.07110667 119.7980179 -61.46477099 112.74410072 -69 103 C-77.99409734 89.24049485 -82.41941027 75.62874567 -82.25 59.125 C-82.24250732 58.15900879 -82.23501465 57.19301758 -82.22729492 56.19775391 C-81.9689625 39.04967675 -77.47202759 23.6093499 -65.8203125 10.55859375 C-48.08637206 -6.62297805 -22.20682483 -9.90934952 0 0 Z " fill="#121212" transform="translate(724,944)"/>
<path d="M0 0 C9.9 0 19.8 0 30 0 C30 16.83 30 33.66 30 51 C49.14 51 68.28 51 88 51 C88 58.59 88 66.18 88 74 C68.86 74 49.72 74 30 74 C30.03266258 91.88495341 30.03266258 91.88495341 30.11132812 109.76953125 C30.15363299 117.06856128 30.19065623 124.36734042 30.19555664 131.66650391 C30.1998485 137.5541363 30.22838584 143.44120621 30.27343178 149.32866287 C30.28637826 151.5699803 30.29072463 153.81136514 30.28615379 156.0527153 C30.28122773 159.20290927 30.30743075 162.35147193 30.34057617 165.50146484 C30.32763771 166.8781987 30.32763771 166.8781987 30.31443787 168.28274536 C30.44265133 175.59598053 32.59133394 181.96730658 37.3716917 187.62280846 C43.61470615 193.31935971 51.03167195 194.44650139 59.09375 194.51171875 C59.92588013 194.52966995 60.75801025 194.54762115 61.61535645 194.56611633 C64.24352114 194.61980627 66.87150865 194.65398071 69.5 194.6875 C71.29429528 194.72070969 73.08856729 194.75520267 74.8828125 194.79101562 C79.25522797 194.87789819 83.62686793 194.93831672 88 195 C88 203.91 88 212.82 88 222 C82.55923517 222.06948943 77.12005701 222.12903118 71.67919922 222.16479492 C69.83474463 222.17972913 67.99032457 222.20008395 66.14599609 222.22631836 C48.70917152 222.46783874 30.53418629 221.66622826 16.625 209.75 C8.55343453 201.88539774 4.54961556 193.97493608 2 183 C1.83019623 182.27430313 1.66039246 181.54860626 1.48544312 180.80091858 C-0.64565881 170.15361643 -0.2505653 159.41472282 -0.1953125 148.609375 C-0.19157615 146.45176322 -0.18873212 144.29414973 -0.18673706 142.13653564 C-0.17914959 136.49447841 -0.15954373 130.85252633 -0.1373291 125.21051025 C-0.1167647 119.43853172 -0.10771281 113.66653597 -0.09765625 107.89453125 C-0.07629268 96.59630085 -0.04115104 85.29817567 0 74 C-9.57 74 -19.14 74 -29 74 C-29 66.41 -29 58.82 -29 51 C-19.43 51 -9.86 51 0 51 C0 34.17 0 17.34 0 0 Z " fill="#FAFAFA" transform="translate(1243,867)"/>
<path d="M0 0 C1.50064955 0.0050254 3.00130072 0.00958647 4.50195312 0.01367188 C8.14720938 0.02373608 11.79223527 0.04332561 15.4375 0.0625 C15.4375 8.3125 15.4375 16.5625 15.4375 25.0625 C13.148125 25.08828125 10.85875 25.1140625 8.5 25.140625 C6.2591574 25.17914349 4.01853735 25.2242716 1.77783203 25.27001953 C0.23204343 25.29807787 -1.31388461 25.31936706 -2.85986328 25.33349609 C-16.15761141 25.4005052 -16.15761141 25.4005052 -27.5859375 31.7734375 C-28.25496094 32.59714844 -28.25496094 32.59714844 -28.9375 33.4375 C-29.39898438 33.98148438 -29.86046875 34.52546875 -30.3359375 35.0859375 C-35.96577434 44.15822235 -34.08579624 54.57501735 -34.5625 65.0625 C-16.7425 65.0625 1.0775 65.0625 19.4375 65.0625 C19.4375 72.6525 19.4375 80.2425 19.4375 88.0625 C1.6175 88.0625 -16.2025 88.0625 -34.5625 88.0625 C-34.5625 135.5825 -34.5625 183.1025 -34.5625 232.0625 C-44.1325 232.0625 -53.7025 232.0625 -63.5625 232.0625 C-63.5625 184.5425 -63.5625 137.0225 -63.5625 88.0625 C-71.4825 88.0625 -79.4025 88.0625 -87.5625 88.0625 C-87.5625 80.4725 -87.5625 72.8825 -87.5625 65.0625 C-79.6425 65.0625 -71.7225 65.0625 -63.5625 65.0625 C-63.60167462 59.21491594 -63.60167462 59.21491594 -63.65258789 53.36743164 C-63.70116981 38.79755857 -60.6641329 25.40625968 -50.85546875 14.09375 C-36.8013536 0.60179946 -18.23452695 -0.10668175 0 0 Z " fill="#FDFDFD" transform="translate(1539.5625,854.9375)"/>
<path d="M0 0 C10.56 0 21.12 0 32 0 C32 76.23 32 152.46 32 231 C21.44 231 10.88 231 0 231 C0 154.77 0 78.54 0 0 Z " fill="#F7F7F7" transform="translate(529,856)"/>
<path d="M0 0 C18.81 0 37.62 0 57 0 C57 55.77 57 111.54 57 169 C46.77 169 36.54 169 26 169 C26 121.15 26 73.3 26 24 C17.42 24 8.84 24 0 24 C0 16.08 0 8.16 0 0 Z " fill="#FAFAFA" transform="translate(1356,918)"/>
<path d="M0 0 C1.65322266 0.01740234 1.65322266 0.01740234 3.33984375 0.03515625 C4.99693359 0.04869141 4.99693359 0.04869141 6.6875 0.0625 C7.54214844 0.07410156 8.39679688 0.08570313 9.27734375 0.09765625 C17.91679358 23.24375142 26.51266579 46.40533927 35.02734375 69.59765625 C35.41243103 70.64645966 35.79751831 71.69526306 36.1942749 72.77584839 C37.30046795 75.78922899 38.4062419 78.80276284 39.51171875 81.81640625 C39.83405487 82.69506851 40.15639099 83.57373077 40.48849487 84.47901917 C41.1041743 86.15854712 41.71836382 87.83862213 42.33093262 89.51928711 C43.01204889 91.37489629 43.70312124 93.22686202 44.4005127 95.07641602 C44.76753296 96.05860107 45.13455322 97.04078613 45.51269531 98.05273438 C45.84996643 98.94609497 46.18723755 99.83945557 46.534729 100.7598877 C47.27734375 103.09765625 47.27734375 103.09765625 47.27734375 106.09765625 C18.56734375 106.09765625 -10.14265625 106.09765625 -39.72265625 106.09765625 C-38.59767217 98.22276768 -38.59767217 98.22276768 -37.44189453 95.01318359 C-37.05246422 93.91630722 -37.05246422 93.91630722 -36.65516663 92.79727173 C-36.37064133 92.017258 -36.08611603 91.23724426 -35.79296875 90.43359375 C-35.33929176 89.16459732 -35.33929176 89.16459732 -34.87644958 87.8699646 C-33.87318952 85.06854126 -32.86052306 82.27061908 -31.84765625 79.47265625 C-31.14125663 77.50704754 -30.43545811 75.54122271 -29.73022461 73.57519531 C-28.21414016 69.35137912 -26.69430035 65.12893722 -25.17236328 60.90722656 C-22.58872561 53.73412431 -20.02819454 46.5528565 -17.46875 39.37109375 C-16.16742798 35.72392616 -14.86566958 32.07691474 -13.56365967 28.42999268 C-12.7106542 26.03989147 -11.85831957 23.64955074 -11.00665283 21.25897217 C-9.81190563 17.90732279 -8.6134792 14.55701195 -7.4140625 11.20703125 C-7.05436874 10.1956308 -6.69467499 9.18423035 -6.32408142 8.1421814 C-5.99485184 7.22482208 -5.66562225 6.30746277 -5.32641602 5.36230469 C-5.03936295 4.55871521 -4.75230988 3.75512573 -4.45655823 2.92718506 C-3.31452809 0.08024214 -3.21710787 0.11539124 0 0 Z " fill="#121212" transform="translate(370.72265625,883.90234375)"/>
<path d="M0 0 C10.84212838 7.2181841 17.59396712 17.74827081 20.9140625 30.2734375 C21.4090625 35.2234375 21.4090625 35.2234375 21.9140625 40.2734375 C-12.0759375 40.2734375 -46.0659375 40.2734375 -81.0859375 40.2734375 C-78.50802619 24.80596965 -72.87342108 10.98138607 -59.7734375 1.62109375 C-54.13383769 -1.982963 -48.56770126 -4.14592187 -42.0859375 -5.7265625 C-41.4674292 -5.89712158 -40.8489209 -6.06768066 -40.21166992 -6.2434082 C-26.64222575 -9.3275853 -11.96736312 -6.69566393 0 0 Z " fill="#151515" transform="translate(941.0859375,945.7265625)"/>
<path d="M0 0 C5.51118969 4.07434381 10.78466964 9.72717999 12.1875 16.6171875 C13.16845614 25.64418836 12.6811541 33.16816499 7.1875 40.6171875 C1.89443381 46.57611916 -3.6964821 50.05031571 -11.6328125 50.9296875 C-19.7964587 51.26374975 -26.84219863 50.12079246 -33.10546875 44.59375 C-40.21157068 37.00873045 -42.48335367 30.5106941 -42.21875 20.125 C-41.37169464 12.81100277 -38.26919656 7.65870374 -32.9375 2.6796875 C-23.24456777 -4.93105929 -10.95537382 -6.37862226 0 0 Z " fill="#00CCCF" transform="translate(1403.8125,845.3828125)"/>
<path d="M0 0 C0.33 0 0.66 0 1 0 C1 10.89 1 21.78 1 33 C0.67 33 0.34 33 0 33 C-0.33 24.09 -0.66 15.18 -1 6 C-1.99 6.495 -1.99 6.495 -3 7 C-1.125 1.125 -1.125 1.125 0 0 Z " fill="#323232" transform="translate(759,1054)"/>
</svg>
